<?xml version="1.0" encoding="UTF-8"?>
<svg version="1.1" xmlns="http://www.w3.org/2000/svg" width="360" height="360">
<path d="M0 0 C118.8 0 237.6 0 360 0 C360 118.8 360 237.6 360 360 C241.2 360 122.4 360 0 360 C0 241.2 0 122.4 0 0 Z " fill="#FEFEFE" transform="translate(0,0)"/>
<path d="M0 0 C39.6 0 79.2 0 120 0 C120 7.92 120 15.84 120 24 C112.08 24 104.16 24 96 24 C96 31.92 96 39.84 96 48 C88.08 48 80.16 48 72 48 C72 55.92 72 63.84 72 72 C64.08 72 56.16 72 48 72 C48 79.92 48 87.84 48 96 C40.08 96 32.16 96 24 96 C24 103.92 24 111.84 24 120 C31.92 120 39.84 120 48 120 C48 127.92 48 135.84 48 144 C40.08 144 32.16 144 24 144 C24 151.92 24 159.84 24 168 C31.92 168 39.84 168 48 168 C48 175.92 48 183.84 48 192 C40.08 192 32.16 192 24 192 C24 199.92 24 207.84 24 216 C31.92 216 39.84 216 48 216 C48 223.92 48 231.84 48 240 C55.92 240 63.84 240 72 240 C72 247.92 72 255.84 72 264 C79.92 264 87.84 264 96 264 C95.89809346 256.32719508 95.89809346 256.32719508 92.375 253.5 C91.84261719 253.12101563 91.31023437 252.74203125 90.76171875 252.3515625 C86.61171451 249.1677455 82.65884351 244.97653052 81 240 C79.11683841 238.89163577 79.11683841 238.89163577 77 238 C75.515 237.01 75.515 237.01 74 236 C74 235.01 74 234.02 74 233 C73.34 233 72.68 233 72 233 C72 231.35 72 229.7 72 228 C77.34108528 233.17417637 82.51824836 238.63762681 86.9375 244.625 C89.65275775 247.75166044 92.83151553 250.01937662 96.171875 252.44921875 C96.77515625 252.96097656 97.3784375 253.47273437 98 254 C98 254.66 98 255.32 98 256 C98.73863281 256.27199219 99.47726563 256.54398437 100.23828125 256.82421875 C102.85024901 257.93624463 104.88262286 259.17357235 107.1875 260.8125 C111.90083929 264.04201025 116.83982186 266.56534392 122 269 C122 269.66 122 270.32 122 271 C123.8253125 271.37125 123.8253125 271.37125 125.6875 271.75 C129.56470138 272.60153488 133.28861369 273.70933999 137.0625 274.9375 C170.77130214 285.21175819 205.02603779 281.30238634 236.0625 265 C261.59621496 251.05836141 277.81590473 229.91265333 290 204 C290.46664063 203.01773438 290.93328125 202.03546875 291.4140625 201.0234375 C303.42785348 173.08953087 301.62594222 139.40017204 290.93359375 111.45605469 C288.64176508 105.73282571 286.32666471 100.21087317 283 95 C282.53722656 94.20722656 282.07445312 93.41445312 281.59765625 92.59765625 C274.4072723 80.72345986 264.56360852 68.16038001 253.0625 60.1875 C252.051875 59.465625 251.04125 58.74375 250 58 C250 57.34 250 56.68 250 56 C249.278125 55.731875 248.55625 55.46375 247.8125 55.1875 C244.98517028 53.99373856 242.49921628 52.78515449 240 51 C240 50.01 240 49.02 240 48 C247.92 48 255.84 48 264 48 C264 40.08 264 32.16 264 24 C271.92 24 279.84 24 288 24 C288 31.92 288 39.84 288 48 C295.92 48 303.84 48 312 48 C312 55.92 312 63.84 312 72 C319.92 72 327.84 72 336 72 C336 79.92 336 87.84 336 96 C343.92 96 351.84 96 360 96 C360 183.12 360 270.24 360 360 C241.2 360 122.4 360 0 360 C0 241.2 0 122.4 0 0 Z " fill="#FFFFFF" transform="translate(0,0)"/>
<path d="M0 0 C15.84 0 31.68 0 48 0 C48 55.44 48 110.88 48 168 C-15.36 168 -78.72 168 -144 168 C-144 160.08 -144 152.16 -144 144 C-151.92 144 -159.84 144 -168 144 C-168 136.08 -168 128.16 -168 120 C-160.08 120 -152.16 120 -144 120 C-144 113.4 -144 106.8 -144 100 C-136.08 99.67 -128.16 99.34 -120 99 C-120 105.93 -120 112.86 -120 120 C-112.08 120 -104.16 120 -96 120 C-96 112.08 -96 104.16 -96 96 C-88.08 96 -80.16 96 -72 96 C-72 92.37 -72 88.74 -72 85 C-66.25 82 -66.25 82 -64 82 C-64 81.34 -64 80.68 -64 80 C-63.31292969 79.67386719 -62.62585938 79.34773438 -61.91796875 79.01171875 C-61.01691406 78.57472656 -60.11585938 78.13773437 -59.1875 77.6875 C-58.29417969 77.25824219 -57.40085937 76.82898438 -56.48046875 76.38671875 C-53.99176595 75.14800289 -53.99176595 75.14800289 -52.36328125 73.33203125 C-51 72 -51 72 -48 72 C-47.731875 71.38125 -47.46375 70.7625 -47.1875 70.125 C-46 68 -46 68 -43 66 C-42.5875 65.154375 -42.175 64.30875 -41.75 63.4375 C-39.76291075 59.53428896 -37.2885103 56.42837018 -34.5234375 53.05078125 C-32.82035493 50.98085265 -32.82035493 50.98085265 -32 48 C-29.36 48 -26.72 48 -24 48 C-24.12375 46.845 -24.2475 45.69 -24.375 44.5 C-24.40850265 39.74262417 -22.43617032 37.55856095 -19.46875 34.03125 C-17.17634593 30.86090395 -16.68159027 27.81690553 -16 24 C-10.72 24 -5.44 24 0 24 C0 16.08 0 8.16 0 0 Z " fill="#F0F0F0" transform="translate(312,192)"/>
<path d="M0 0 C7.92 0 15.84 0 24 0 C24 7.92 24 15.84 24 24 C31.92 24 39.84 24 48 24 C48 31.92 48 39.84 48 48 C55.92 48 63.84 48 72 48 C72 55.92 72 63.84 72 72 C79.92 72 87.84 72 96 72 C96 103.68 96 135.36 96 168 C80.16 168 64.32 168 48 168 C48 175.92 48 183.84 48 192 C42.72 192 37.44 192 32 192 C31.95875 193.155 31.9175 194.31 31.875 195.5 C31.33898406 200.11298565 29.26260643 202.47762287 26.3671875 205.96875 C24.16657888 209.23822567 24.1387189 212.11587073 24 216 C20.7 216 17.4 216 14 216 C13.34 217.32 12.68 218.64 12 220 C9.28728569 224.87336747 6.78346178 228.89721398 2 232 C1.34 232 0.68 232 0 232 C-0.226875 232.5775 -0.45375 233.155 -0.6875 233.75 C-2.34761639 236.59591381 -4.39187957 237.99841921 -7 240 C-7.825 240.86625 -8.65 241.7325 -9.5 242.625 C-12.02312585 245.02196956 -13.83069363 245.74895801 -17 247 C-17.45375 247.680625 -17.9075 248.36125 -18.375 249.0625 C-20.79429499 251.94704402 -23.33157291 251.51889481 -27 252 C-29.1078181 252.92791992 -31.10445458 253.98896783 -33.1328125 255.078125 C-35.37657134 256.18592225 -37.52287577 256.69035947 -40 257 C-40 257.66 -40 258.32 -40 259 C-54.87655821 263.2532713 -69.07860951 264.05477509 -84.5 264.125 C-85.51513672 264.12983398 -86.53027344 264.13466797 -87.57617188 264.13964844 C-93.1449429 264.12676628 -98.49173034 263.82624045 -104 263 C-104 262.34 -104 261.68 -104 261 C-105.299375 261.0928125 -105.299375 261.0928125 -106.625 261.1875 C-110 261 -110 261 -112.625 259.625 C-115.95053079 258.02381851 -118.31942779 257.56263202 -121.9375 257.0625 C-127.30411418 256.2618091 -130.48671346 254.95099505 -135 252 C-137.11889927 250.94437509 -139.25373318 249.93165361 -141.3984375 248.9296875 C-143 248 -143 248 -144 246 C-138.21978502 247.52903482 -132.49936805 249.15176788 -126.8125 251 C-93.10979603 261.16554876 -58.95288081 257.29131301 -27.9375 241 C-2.40378504 227.05836141 13.81590473 205.91265333 26 180 C26.46664062 179.01773438 26.93328125 178.03546875 27.4140625 177.0234375 C39.42785348 149.08953087 37.62594222 115.40017204 26.93359375 87.45605469 C24.64176508 81.73282571 22.32666471 76.21087317 19 71 C18.53722656 70.20722656 18.07445312 69.41445312 17.59765625 68.59765625 C10.4072723 56.72345986 0.56360852 44.16038001 -10.9375 36.1875 C-11.948125 35.465625 -12.95875 34.74375 -14 34 C-14 33.34 -14 32.68 -14 32 C-14.721875 31.731875 -15.44375 31.46375 -16.1875 31.1875 C-19.01482972 29.99373856 -21.50078372 28.78515449 -24 27 C-24 26.01 -24 25.02 -24 24 C-16.08 24 -8.16 24 0 24 C0 16.08 0 8.16 0 0 Z " fill="#EDEDED" transform="translate(264,24)"/>
<path d="M0 0 C2.3359375 0.12890625 2.3359375 0.12890625 5 1 C6.4765625 3.58984375 6.4765625 3.58984375 7.625 6.9375 C8.03878906 8.11957031 8.45257813 9.30164063 8.87890625 10.51953125 C10.05793419 14.17985841 11.19991889 17.84249882 12.24609375 21.54296875 C13.07271329 24.23697751 14.09075025 26.81665923 15.125 29.4375 C17.17734463 34.92086352 17.77471023 40.17625951 18 46 C18.66 46 19.32 46 20 46 C22.19265592 59.1559355 20.98534215 72.76826256 20 86 C19.01 86 18.02 86 17 86 C16.97421875 86.87140625 16.9484375 87.7428125 16.921875 88.640625 C16.42861002 98.99918964 15.00905629 109.86045076 8 118 C7.01 118 6.02 118 5 118 C4.48638228 120.48396154 4.00664672 122.95441218 3.640625 125.46484375 C2.6831145 131.5258852 1.21240225 134.57157712 -3 139 C-3.33 139.99 -3.66 140.98 -4 142 C-5.32 142 -6.64 142 -8 142 C-8.28230469 142.5775 -8.56460938 143.155 -8.85546875 143.75 C-11.73311062 149.40707071 -14.55393923 154.46742004 -20 158 C-20.66 158 -21.32 158 -22 158 C-22.226875 158.5775 -22.45375 159.155 -22.6875 159.75 C-24.34761639 162.59591381 -26.39187957 163.99841921 -29 166 C-29.825 166.86625 -30.65 167.7325 -31.5 168.625 C-34.02312585 171.02196956 -35.83069363 171.74895801 -39 173 C-39.45375 173.680625 -39.9075 174.36125 -40.375 175.0625 C-42.79429499 177.94704402 -45.33157291 177.51889481 -49 178 C-51.1078181 178.92791992 -53.10445458 179.98896783 -55.1328125 181.078125 C-57.37657134 182.18592225 -59.52287577 182.69035947 -62 183 C-62 183.66 -62 184.32 -62 185 C-76.87655821 189.2532713 -91.07860951 190.05477509 -106.5 190.125 C-107.51513672 190.12983398 -108.53027344 190.13466797 -109.57617188 190.13964844 C-115.1449429 190.12676628 -120.49173034 189.82624045 -126 189 C-126 188.34 -126 187.68 -126 187 C-126.86625 187.061875 -127.7325 187.12375 -128.625 187.1875 C-132 187 -132 187 -134.625 185.625 C-137.95053079 184.02381851 -140.31942779 183.56263202 -143.9375 183.0625 C-149.30411418 182.2618091 -152.48671346 180.95099505 -157 178 C-159.11889927 176.94437509 -161.25373318 175.93165361 -163.3984375 174.9296875 C-165 174 -165 174 -166 172 C-160.21978502 173.52903482 -154.49936805 175.15176788 -148.8125 177 C-115.10979603 187.16554876 -80.95288081 183.29131301 -49.9375 167 C-24.40378504 153.05836141 -8.18409527 131.91265333 4 106 C4.46664062 105.01773438 4.93328125 104.03546875 5.4140625 103.0234375 C17.43293814 75.07770826 15.71162913 41.20299331 4.78710938 13.30957031 C3.4627627 10.07632962 2.08777722 6.86880384 0.6550293 3.68212891 C0 2 0 2 0 0 Z " fill="#7C7C7C" transform="translate(286,98)"/>
<path d="M0 0 C5.34108528 5.17417637 10.51824836 10.63762681 14.9375 16.625 C17.65275775 19.75166044 20.83151553 22.01937662 24.171875 24.44921875 C24.77515625 24.96097656 25.3784375 25.47273438 26 26 C26 26.66 26 27.32 26 28 C27.10794922 28.40798828 27.10794922 28.40798828 28.23828125 28.82421875 C30.85024901 29.93624463 32.88262286 31.17357235 35.1875 32.8125 C39.90083929 36.04201025 44.83982186 38.56534392 50 41 C49.505 41.99 49.505 41.99 49 43 C49.66386719 43.32613281 50.32773438 43.65226562 51.01171875 43.98828125 C51.89472656 44.42527344 52.77773437 44.86226563 53.6875 45.3125 C54.55761719 45.74175781 55.42773438 46.17101562 56.32421875 46.61328125 C59 48 59 48 61.4609375 49.60546875 C64.36083359 51.19818091 66.66558192 51.59574757 69.9375 52 C74.54161091 52.67061101 77.8964704 53.75282903 82 56 C85.2366963 56.70758326 85.2366963 56.70758326 88 57 C88 57.66 88 58.32 88 59 C120.17877643 59.31094054 120.17877643 59.31094054 152 55 C152 54.34 152 53.68 152 53 C152.66 52.7525 153.32 52.505 154 52.25 C156.42375524 51.24010198 158.58273585 50.13262352 160.875 48.875 C164.81828934 46.8508781 167.61562867 46.63463572 172 47 C172.28875 46.38125 172.5775 45.7625 172.875 45.125 C175.35503544 40.44048862 179.22751283 39.59082906 184 38 C184.28875 37.401875 184.5775 36.80375 184.875 36.1875 C186.3692363 33.28204054 188.4180317 31.98151055 191 30 C191.86625 29.13375 192.7325 28.2675 193.625 27.375 C196 25 196 25 199 23 C200.02894623 21.26365323 201.0548875 19.52465224 202.0234375 17.75390625 C203.18458468 15.66848592 204.42181836 13.79338822 206 12 C206.66 12 207.32 12 208 12 C207.39478515 15.28857706 206.2729301 17.22023119 204.1875 19.8125 C202.19834033 22.36051882 200.45712072 24.83509717 198.9375 27.6875 C195.87007829 32.93180163 192.24787649 36.07095266 187 39 C184.95204628 40.33177344 182.90649116 41.66673054 180.8671875 43.01171875 C179 44 179 44 176 44 C176 44.66 176 45.32 176 46 C170.25 49 170.25 49 168 49 C168 52.63 168 56.26 168 60 C160.08 60 152.16 60 144 60 C144 67.92 144 75.84 144 84 C136.08 84 128.16 84 120 84 C120 77.07 120 70.14 120 63 C119.01 63.495 119.01 63.495 118 64 C116.3325394 64.08426094 114.66174813 64.10725143 112.9921875 64.09765625 C112.00605469 64.09443359 111.01992187 64.09121094 110.00390625 64.08789062 C108.97136719 64.07951172 107.93882812 64.07113281 106.875 64.0625 C105.31458984 64.05573242 105.31458984 64.05573242 103.72265625 64.04882812 C101.14841313 64.03701967 98.57419947 64.01908385 96 64 C96 70.6 96 77.2 96 84 C88.08 84 80.16 84 72 84 C72 76.08 72 68.16 72 60 C73.32 59.67 74.64 59.34 76 59 C75.44054687 58.91363281 74.88109375 58.82726562 74.3046875 58.73828125 C65.2395253 57.14969173 56.1475047 54.33463304 48 50 C48 49.34 48 48.68 48 48 C45.36 47.34 42.72 46.68 40 46 C40 45.34 40 44.68 40 44 C39.34 44 38.68 44 38 44 C38 43.01 38 42.02 38 41 C36.35 40.67 34.7 40.34 33 40 C32.505 38.02 32.505 38.02 32 36 C29.36 36 26.72 36 24 36 C23.95875 34.783125 23.9175 33.56625 23.875 32.3125 C23.42104974 28.71242228 23.16059667 28.15294921 20.375 25.5 C19.84261719 25.12101562 19.31023437 24.74203125 18.76171875 24.3515625 C14.61171451 21.1677455 10.65884351 16.97653052 9 12 C7.11683841 10.89163577 7.11683841 10.89163577 5 10 C4.01 9.34 3.02 8.68 2 8 C2 7.01 2 6.02 2 5 C1.34 5 0.68 5 0 5 C0 3.35 0 1.7 0 0 Z " fill="#ECECEC" transform="translate(72,228)"/>
<path d="M0 0 C3.90381822 3.90381822 3.56244183 5.66179036 4 11 C5.65 11 7.3 11 9 11 C9 18.92 9 26.84 9 35 C16.92 35 24.84 35 33 35 C33 42.92 33 50.84 33 59 C25.08 59 17.16 59 9 59 C9 66.92 9 74.84 9 83 C3.72 83 -1.56 83 -7 83 C-7.04125 84.155 -7.0825 85.31 -7.125 86.5 C-7.66101594 91.11298565 -9.73739357 93.47762287 -12.6328125 96.96875 C-14.83342112 100.23822567 -14.8612811 103.11587073 -15 107 C-16.98 107 -18.96 107 -21 107 C-20.58325276 104.1869561 -20.01404517 103.01540437 -18.0625 100.875 C-15.5627449 97.39049289 -15.13409823 94.54996265 -14.4375 90.3828125 C-13.95345133 87.74647601 -13.13270025 85.42721482 -12 83 C-11.01 83 -10.02 83 -9 83 C-8.70996094 82.26265625 -8.41992188 81.5253125 -8.12109375 80.765625 C-7.46068165 79.13645507 -6.77544296 77.51633867 -6.03515625 75.921875 C-2.45953421 67.93775511 -1.31416478 59.58189422 0 51 C0.99 51 1.98 51 3 51 C3 37.8 3 24.6 3 11 C2.34 11 1.68 11 1 11 C0.67 7.37 0.34 3.74 0 0 Z " fill="#ECECEC" transform="translate(303,133)"/>
<path d="M0 0 C2.64 0 5.28 0 8 0 C8.2475 0.639375 8.495 1.27875 8.75 1.9375 C9.81562433 4.18741541 9.81562433 4.18741541 12.125 4.75 C12.74375 4.8325 13.3625 4.915 14 5 C14 5.99 14 6.98 14 8 C14.66 8 15.32 8 16 8 C16 8.66 16 9.32 16 10 C17.423125 10.2165625 17.423125 10.2165625 18.875 10.4375 C22 11 22 11 24 12 C24 12.66 24 13.32 24 14 C24.58177002 14.13736572 25.16354004 14.27473145 25.76293945 14.41625977 C27.83127968 14.955974 29.78830458 15.60181959 31.79296875 16.33984375 C32.50203369 16.59749512 33.21109863 16.85514648 33.94165039 17.12060547 C34.68278076 17.39018066 35.42391113 17.65975586 36.1875 17.9375 C42.08025683 20.05535643 47.82432232 21.87714951 54 23 C54 23.33 54 23.66 54 24 C52.02 24 50.04 24 48 24 C48 31.92 48 39.84 48 48 C40.08 48 32.16 48 24 48 C24 40.08 24 32.16 24 24 C16.08 24 8.16 24 0 24 C0 16.08 0 8.16 0 0 Z " fill="#FEFEFE" transform="translate(96,264)"/>
<path d="M0 0 C7.92 0 15.84 0 24 0 C24.25 8.75 24.25 8.75 24.29785156 11.48730469 C24.47047499 16.38240768 24.47047499 16.38240768 27.046875 20.453125 C27.69140625 20.96359375 28.3359375 21.4740625 29 22 C29 22.66 29 23.32 29 24 C35.27 24 41.54 24 48 24 C48 31.92 48 39.84 48 48 C55.92 48 63.84 48 72 48 C72 55.92 72 63.84 72 72 C68.04 72 64.08 72 60 72 C60.495 73.216875 60.99 74.43375 61.5 75.6875 C62.72479441 78.92486738 63.32803185 81.50099357 63 85 C59.75758812 80.13638217 58.1775003 74.69850647 56.5625 69.125 C55.26249075 64.65103201 53.60389023 60.4090772 51.76953125 56.12890625 C51 54 51 54 51 51 C50.07960938 51.11085937 49.15921875 51.22171875 48.2109375 51.3359375 C47.15132813 51.22507813 46.09171875 51.11421875 45 51 C43.1640625 48.7265625 43.1640625 48.7265625 41.625 45.625 C38.32342303 39.45626408 34.55488162 34.29282333 30 29 C29.27683594 28.154375 28.55367188 27.30875 27.80859375 26.4375 C19.8675132 17.06767579 19.8675132 17.06767579 10 10 C10 9.34 10 8.68 10 8 C9.278125 7.731875 8.55625 7.46375 7.8125 7.1875 C4.98517028 5.99373856 2.49921628 4.78515449 0 3 C0 2.01 0 1.02 0 0 Z " fill="#ECECEC" transform="translate(240,48)"/>
<path d="M0 0 C2.3359375 0.12890625 2.3359375 0.12890625 5 1 C6.4765625 3.58984375 6.4765625 3.58984375 7.625 6.9375 C8.03878906 8.11957031 8.45257813 9.30164063 8.87890625 10.51953125 C10.05793419 14.17985841 11.19991889 17.84249882 12.24609375 21.54296875 C13.07271329 24.23697751 14.09075025 26.81665923 15.125 29.4375 C17.17734463 34.92086352 17.77471023 40.17625951 18 46 C18.66 46 19.32 46 20 46 C22.19265592 59.1559355 20.98534215 72.76826256 20 86 C19.01 86 18.02 86 17 86 C16.96132813 87.30710938 16.96132813 87.30710938 16.921875 88.640625 C16.42861002 98.99918964 15.00905629 109.86045076 8 118 C7.01 118 6.02 118 5 118 C4.48638228 120.48396154 4.00664672 122.95441218 3.640625 125.46484375 C2.6831145 131.5258852 1.21240225 134.57157712 -3 139 C-3.33 139.99 -3.66 140.98 -4 142 C-8.29 142.33 -12.58 142.66 -17 143 C-15.9299141 138.71965638 -14.16018306 136.47719962 -11.4375 133.1875 C-5.91619457 126.27244769 -1.88537576 118.92435941 2 111 C2.40992188 110.18917969 2.81984375 109.37835938 3.2421875 108.54296875 C16.21556067 81.4396814 16.65668912 47.08909516 6.97802734 19.03808594 C5.03778667 13.84501223 2.92822252 8.73809704 0.6550293 3.68212891 C0 2 0 2 0 0 Z " fill="#7C7C7C" transform="translate(286,98)"/>
<path d="M0 0 C5.34108528 5.17417637 10.51824836 10.63762681 14.9375 16.625 C17.65275775 19.75166044 20.83151553 22.01937662 24.171875 24.44921875 C24.77515625 24.96097656 25.3784375 25.47273438 26 26 C26 26.66 26 27.32 26 28 C27.10794922 28.40798828 27.10794922 28.40798828 28.23828125 28.82421875 C30.85024901 29.93624463 32.88262286 31.17357235 35.1875 32.8125 C39.90083929 36.04201025 44.83982186 38.56534392 50 41 C49.505 41.99 49.505 41.99 49 43 C49.66386719 43.32613281 50.32773438 43.65226562 51.01171875 43.98828125 C51.89472656 44.42527344 52.77773437 44.86226563 53.6875 45.3125 C54.55761719 45.74175781 55.42773438 46.17101562 56.32421875 46.61328125 C59 48 59 48 61.4609375 49.60546875 C64.36083359 51.19818091 66.66558192 51.59574757 69.9375 52 C74.54161091 52.67061101 77.8964704 53.75282903 82 56 C85.2366963 56.70758326 85.2366963 56.70758326 88 57 C88 57.66 88 58.32 88 59 C105.36315158 59.10516258 122.66556236 59.16674099 140 58 C139.34 59.32 138.68 60.64 138 62 C130.57591191 62.02325697 123.15183179 62.04098279 115.72771454 62.05181217 C112.27972621 62.05701194 108.83176296 62.06405628 105.38378906 62.07543945 C101.41211252 62.08846827 97.44044583 62.09325224 93.46875 62.09765625 C92.24136108 62.10281754 91.01397217 62.10797882 89.74938965 62.11329651 C83.73383447 62.113688 77.94626729 61.92990868 72 61 C73.32 60.34 74.64 59.68 76 59 C75.44054687 58.91363281 74.88109375 58.82726562 74.3046875 58.73828125 C65.2395253 57.14969173 56.1475047 54.33463304 48 50 C48 49.34 48 48.68 48 48 C45.36 47.34 42.72 46.68 40 46 C40 45.34 40 44.68 40 44 C39.34 44 38.68 44 38 44 C38 43.01 38 42.02 38 41 C36.35 40.67 34.7 40.34 33 40 C32.505 38.02 32.505 38.02 32 36 C29.36 36 26.72 36 24 36 C23.95875 34.783125 23.9175 33.56625 23.875 32.3125 C23.42104974 28.71242228 23.16059667 28.15294921 20.375 25.5 C19.84261719 25.12101562 19.31023437 24.74203125 18.76171875 24.3515625 C14.61171451 21.1677455 10.65884351 16.97653052 9 12 C7.11683841 10.89163577 7.11683841 10.89163577 5 10 C4.01 9.34 3.02 8.68 2 8 C2 7.01 2 6.02 2 5 C1.34 5 0.68 5 0 5 C0 3.35 0 1.7 0 0 Z " fill="#C5C5C5" transform="translate(72,228)"/>
<path d="M0 0 C16.83 0.33 33.66 0.66 51 1 C47.60102327 3.26598448 46.43680827 3.23742654 42.45703125 3.1953125 C40.84731445 3.18564453 40.84731445 3.18564453 39.20507812 3.17578125 C37.52575195 3.15064453 37.52575195 3.15064453 35.8125 3.125 C34.68134766 3.11597656 33.55019531 3.10695313 32.38476562 3.09765625 C29.58975371 3.07406965 26.79485041 3.03819841 24 3 C24 9.6 24 16.2 24 23 C16.08 23 8.16 23 0 23 C0 15.41 0 7.82 0 0 Z " fill="#ECECEC" transform="translate(144,289)"/>
<path d="M0 0 C7.92 0 15.84 0 24 0 C24 7.92 24 15.84 24 24 C16.08 24 8.16 24 0 24 C0 16.08 0 8.16 0 0 Z " fill="#EDEDED" transform="translate(336,336)"/>
<path d="M0 0 C7.92 0 15.84 0 24 0 C24 7.92 24 15.84 24 24 C16.08 24 8.16 24 0 24 C0 16.08 0 8.16 0 0 Z " fill="#FFFFFF" transform="translate(312,336)"/>
<path d="M0 0 C7.92 0 15.84 0 24 0 C24 7.92 24 15.84 24 24 C16.08 24 8.16 24 0 24 C0 16.08 0 8.16 0 0 Z " fill="#EDEDED" transform="translate(288,336)"/>
<path d="M0 0 C7.92 0 15.84 0 24 0 C24 7.92 24 15.84 24 24 C16.08 24 8.16 24 0 24 C0 16.08 0 8.16 0 0 Z " fill="#FFFFFF" transform="translate(264,336)"/>
<path d="M0 0 C7.92 0 15.84 0 24 0 C24 7.92 24 15.84 24 24 C16.08 24 8.16 24 0 24 C0 16.08 0 8.16 0 0 Z " fill="#EDEDED" transform="translate(240,336)"/>
<path d="M0 0 C7.92 0 15.84 0 24 0 C24 7.92 24 15.84 24 24 C16.08 24 8.16 24 0 24 C0 16.08 0 8.16 0 0 Z " fill="#FFFFFF" transform="translate(216,336)"/>
<path d="M0 0 C7.92 0 15.84 0 24 0 C24 7.92 24 15.84 24 24 C16.08 24 8.16 24 0 24 C0 16.08 0 8.16 0 0 Z " fill="#EDEDED" transform="translate(192,336)"/>
<path d="M0 0 C7.92 0 15.84 0 24 0 C24 7.92 24 15.84 24 24 C16.08 24 8.16 24 0 24 C0 16.08 0 8.16 0 0 Z " fill="#EDEDED" transform="translate(144,336)"/>
<path d="M0 0 C7.92 0 15.84 0 24 0 C24 7.92 24 15.84 24 24 C16.08 24 8.16 24 0 24 C0 16.08 0 8.16 0 0 Z " fill="#FFFFFF" transform="translate(120,336)"/>
<path d="M0 0 C7.92 0 15.84 0 24 0 C24 7.92 24 15.84 24 24 C16.08 24 8.16 24 0 24 C0 16.08 0 8.16 0 0 Z " fill="#EDEDED" transform="translate(96,336)"/>
<path d="M0 0 C7.92 0 15.84 0 24 0 C24 7.92 24 15.84 24 24 C16.08 24 8.16 24 0 24 C0 16.08 0 8.16 0 0 Z " fill="#FFFFFF" transform="translate(72,336)"/>
<path d="M0 0 C7.92 0 15.84 0 24 0 C24 7.92 24 15.84 24 24 C16.08 24 8.16 24 0 24 C0 16.08 0 8.16 0 0 Z " fill="#EDEDED" transform="translate(48,336)"/>
<path d="M0 0 C7.92 0 15.84 0 24 0 C24 7.92 24 15.84 24 24 C16.08 24 8.16 24 0 24 C0 16.08 0 8.16 0 0 Z " fill="#FFFFFF" transform="translate(24,336)"/>
<path d="M0 0 C7.92 0 15.84 0 24 0 C24 7.92 24 15.84 24 24 C16.08 24 8.16 24 0 24 C0 16.08 0 8.16 0 0 Z " fill="#EDEDED" transform="translate(0,336)"/>
<path d="M0 0 C7.92 0 15.84 0 24 0 C24 7.92 24 15.84 24 24 C16.08 24 8.16 24 0 24 C0 16.08 0 8.16 0 0 Z " fill="#FFFFFF" transform="translate(336,312)"/>
<path d="M0 0 C7.92 0 15.84 0 24 0 C24 7.92 24 15.84 24 24 C16.08 24 8.16 24 0 24 C0 16.08 0 8.16 0 0 Z " fill="#EDEDED" transform="translate(312,312)"/>
<path d="M0 0 C7.92 0 15.84 0 24 0 C24 7.92 24 15.84 24 24 C16.08 24 8.16 24 0 24 C0 16.08 0 8.16 0 0 Z " fill="#FFFFFF" transform="translate(288,312)"/>
<path d="M0 0 C7.92 0 15.84 0 24 0 C24 7.92 24 15.84 24 24 C16.08 24 8.16 24 0 24 C0 16.08 0 8.16 0 0 Z " fill="#EDEDED" transform="translate(264,312)"/>
<path d="M0 0 C7.92 0 15.84 0 24 0 C24 7.92 24 15.84 24 24 C16.08 24 8.16 24 0 24 C0 16.08 0 8.16 0 0 Z " fill="#FFFFFF" transform="translate(240,312)"/>
<path d="M0 0 C7.92 0 15.84 0 24 0 C24 7.92 24 15.84 24 24 C16.08 24 8.16 24 0 24 C0 16.08 0 8.16 0 0 Z " fill="#EDEDED" transform="translate(216,312)"/>
<path d="M0 0 C7.92 0 15.84 0 24 0 C24 7.92 24 15.84 24 24 C16.08 24 8.16 24 0 24 C0 16.08 0 8.16 0 0 Z " fill="#FFFFFF" transform="translate(192,312)"/>
<path d="M0 0 C7.92 0 15.84 0 24 0 C24 7.92 24 15.84 24 24 C16.08 24 8.16 24 0 24 C0 16.08 0 8.16 0 0 Z " fill="#FFFFFF" transform="translate(144,312)"/>
<path d="M0 0 C7.92 0 15.84 0 24 0 C24 7.92 24 15.84 24 24 C16.08 24 8.16 24 0 24 C0 16.08 0 8.16 0 0 Z " fill="#EDEDED" transform="translate(120,312)"/>
<path d="M0 0 C7.92 0 15.84 0 24 0 C24 7.92 24 15.84 24 24 C16.08 24 8.16 24 0 24 C0 16.08 0 8.16 0 0 Z " fill="#FFFFFF" transform="translate(96,312)"/>
<path d="M0 0 C7.92 0 15.84 0 24 0 C24 7.92 24 15.84 24 24 C16.08 24 8.16 24 0 24 C0 16.08 0 8.16 0 0 Z " fill="#EDEDED" transform="translate(72,312)"/>
<path d="M0 0 C7.92 0 15.84 0 24 0 C24 7.92 24 15.84 24 24 C16.08 24 8.16 24 0 24 C0 16.08 0 8.16 0 0 Z " fill="#FFFFFF" transform="translate(48,312)"/>
<path d="M0 0 C7.92 0 15.84 0 24 0 C24 7.92 24 15.84 24 24 C16.08 24 8.16 24 0 24 C0 16.08 0 8.16 0 0 Z " fill="#EDEDED" transform="translate(24,312)"/>
<path d="M0 0 C7.92 0 15.84 0 24 0 C24 7.92 24 15.84 24 24 C16.08 24 8.16 24 0 24 C0 16.08 0 8.16 0 0 Z " fill="#FFFFFF" transform="translate(0,312)"/>
<path d="M0 0 C7.92 0 15.84 0 24 0 C24 7.92 24 15.84 24 24 C16.08 24 8.16 24 0 24 C0 16.08 0 8.16 0 0 Z " fill="#EDEDED" transform="translate(336,288)"/>
<path d="M0 0 C7.92 0 15.84 0 24 0 C24 7.92 24 15.84 24 24 C16.08 24 8.16 24 0 24 C0 16.08 0 8.16 0 0 Z " fill="#FFFFFF" transform="translate(312,288)"/>
<path d="M0 0 C7.92 0 15.84 0 24 0 C24 7.92 24 15.84 24 24 C16.08 24 8.16 24 0 24 C0 16.08 0 8.16 0 0 Z " fill="#EDEDED" transform="translate(288,288)"/>
<path d="M0 0 C7.92 0 15.84 0 24 0 C24 7.92 24 15.84 24 24 C16.08 24 8.16 24 0 24 C0 16.08 0 8.16 0 0 Z " fill="#FFFFFF" transform="translate(264,288)"/>
<path d="M0 0 C7.92 0 15.84 0 24 0 C24 7.92 24 15.84 24 24 C16.08 24 8.16 24 0 24 C0 16.08 0 8.16 0 0 Z " fill="#FFFFFF" transform="translate(216,288)"/>
<path d="M0 0 C7.92 0 15.84 0 24 0 C24 7.92 24 15.84 24 24 C16.08 24 8.16 24 0 24 C0 16.08 0 8.16 0 0 Z " fill="#FFFFFF" transform="translate(120,288)"/>
<path d="M0 0 C7.92 0 15.84 0 24 0 C24 7.92 24 15.84 24 24 C16.08 24 8.16 24 0 24 C0 16.08 0 8.16 0 0 Z " fill="#EDEDED" transform="translate(96,288)"/>
<path d="M0 0 C7.92 0 15.84 0 24 0 C24 7.92 24 15.84 24 24 C16.08 24 8.16 24 0 24 C0 16.08 0 8.16 0 0 Z " fill="#FFFFFF" transform="translate(72,288)"/>
<path d="M0 0 C7.92 0 15.84 0 24 0 C24 7.92 24 15.84 24 24 C16.08 24 8.16 24 0 24 C0 16.08 0 8.16 0 0 Z " fill="#EDEDED" transform="translate(48,288)"/>
<path d="M0 0 C7.92 0 15.84 0 24 0 C24 7.92 24 15.84 24 24 C16.08 24 8.16 24 0 24 C0 16.08 0 8.16 0 0 Z " fill="#FFFFFF" transform="translate(24,288)"/>
<path d="M0 0 C7.92 0 15.84 0 24 0 C24 7.92 24 15.84 24 24 C16.08 24 8.16 24 0 24 C0 16.08 0 8.16 0 0 Z " fill="#EDEDED" transform="translate(0,288)"/>
<path d="M0 0 C7.92 0 15.84 0 24 0 C24 7.92 24 15.84 24 24 C16.08 24 8.16 24 0 24 C0 16.08 0 8.16 0 0 Z " fill="#FFFFFF" transform="translate(336,264)"/>
<path d="M0 0 C7.92 0 15.84 0 24 0 C24 7.92 24 15.84 24 24 C16.08 24 8.16 24 0 24 C0 16.08 0 8.16 0 0 Z " fill="#EDEDED" transform="translate(312,264)"/>
<path d="M0 0 C7.92 0 15.84 0 24 0 C24 7.92 24 15.84 24 24 C16.08 24 8.16 24 0 24 C0 16.08 0 8.16 0 0 Z " fill="#FFFFFF" transform="translate(288,264)"/>
<path d="M0 0 C7.92 0 15.84 0 24 0 C24 7.92 24 15.84 24 24 C16.08 24 8.16 24 0 24 C0 16.08 0 8.16 0 0 Z " fill="#EDEDED" transform="translate(72,264)"/>
<path d="M0 0 C7.92 0 15.84 0 24 0 C24 7.92 24 15.84 24 24 C16.08 24 8.16 24 0 24 C0 16.08 0 8.16 0 0 Z " fill="#FFFFFF" transform="translate(48,264)"/>
<path d="M0 0 C7.92 0 15.84 0 24 0 C24 7.92 24 15.84 24 24 C16.08 24 8.16 24 0 24 C0 16.08 0 8.16 0 0 Z " fill="#EDEDED" transform="translate(24,264)"/>
<path d="M0 0 C7.92 0 15.84 0 24 0 C24 7.92 24 15.84 24 24 C16.08 24 8.16 24 0 24 C0 16.08 0 8.16 0 0 Z " fill="#FFFFFF" transform="translate(0,264)"/>
<path d="M0 0 C7.92 0 15.84 0 24 0 C24 7.92 24 15.84 24 24 C16.08 24 8.16 24 0 24 C0 16.08 0 8.16 0 0 Z " fill="#EDEDED" transform="translate(336,240)"/>
<path d="M0 0 C7.92 0 15.84 0 24 0 C24 7.92 24 15.84 24 24 C16.08 24 8.16 24 0 24 C0 16.08 0 8.16 0 0 Z " fill="#FFFFFF" transform="translate(312,240)"/>
<path d="M0 0 C7.92 0 15.84 0 24 0 C24 7.92 24 15.84 24 24 C16.08 24 8.16 24 0 24 C0 16.08 0 8.16 0 0 Z " fill="#EDEDED" transform="translate(48,240)"/>
<path d="M0 0 C7.92 0 15.84 0 24 0 C24 7.92 24 15.84 24 24 C16.08 24 8.16 24 0 24 C0 16.08 0 8.16 0 0 Z " fill="#FFFFFF" transform="translate(24,240)"/>
<path d="M0 0 C7.92 0 15.84 0 24 0 C24 7.92 24 15.84 24 24 C16.08 24 8.16 24 0 24 C0 16.08 0 8.16 0 0 Z " fill="#EDEDED" transform="translate(0,240)"/>
<path d="M0 0 C7.92 0 15.84 0 24 0 C24 7.92 24 15.84 24 24 C16.08 24 8.16 24 0 24 C0 16.08 0 8.16 0 0 Z " fill="#FFFFFF" transform="translate(336,216)"/>
<path d="M0 0 C7.92 0 15.84 0 24 0 C24 7.92 24 15.84 24 24 C16.08 24 8.16 24 0 24 C0 16.08 0 8.16 0 0 Z " fill="#EDEDED" transform="translate(312,216)"/>
<path d="M0 0 C7.92 0 15.84 0 24 0 C24 7.92 24 15.84 24 24 C16.08 24 8.16 24 0 24 C0 16.08 0 8.16 0 0 Z " fill="#EDEDED" transform="translate(24,216)"/>
<path d="M0 0 C7.92 0 15.84 0 24 0 C24 7.92 24 15.84 24 24 C16.08 24 8.16 24 0 24 C0 16.08 0 8.16 0 0 Z " fill="#FFFFFF" transform="translate(0,216)"/>
<path d="M0 0 C7.92 0 15.84 0 24 0 C24 7.92 24 15.84 24 24 C16.08 24 8.16 24 0 24 C0 16.08 0 8.16 0 0 Z " fill="#FFFFFF" transform="translate(312,192)"/>
<path d="M0 0 C7.92 0 15.84 0 24 0 C24 7.92 24 15.84 24 24 C16.08 24 8.16 24 0 24 C0 16.08 0 8.16 0 0 Z " fill="#EDEDED" transform="translate(0,192)"/>
<path d="M0 0 C7.92 0 15.84 0 24 0 C24 7.92 24 15.84 24 24 C16.08 24 8.16 24 0 24 C0 16.08 0 8.16 0 0 Z " fill="#FFFFFF" transform="translate(336,168)"/>
<path d="M0 0 C7.92 0 15.84 0 24 0 C24 7.92 24 15.84 24 24 C16.08 24 8.16 24 0 24 C0 16.08 0 8.16 0 0 Z " fill="#EDEDED" transform="translate(24,168)"/>
<path d="M0 0 C7.92 0 15.84 0 24 0 C24 7.92 24 15.84 24 24 C16.08 24 8.16 24 0 24 C0 16.08 0 8.16 0 0 Z " fill="#FFFFFF" transform="translate(0,168)"/>
<path d="M0 0 C7.92 0 15.84 0 24 0 C24 7.92 24 15.84 24 24 C16.08 24 8.16 24 0 24 C0 16.08 0 8.16 0 0 Z " fill="#EDEDED" transform="translate(336,144)"/>
<path d="M0 0 C7.92 0 15.84 0 24 0 C24 7.92 24 15.84 24 24 C16.08 24 8.16 24 0 24 C0 16.08 0 8.16 0 0 Z " fill="#FFFFFF" transform="translate(312,144)"/>
<path d="M0 0 C7.92 0 15.84 0 24 0 C24 7.92 24 15.84 24 24 C16.08 24 8.16 24 0 24 C0 16.08 0 8.16 0 0 Z " fill="#EDEDED" transform="translate(0,144)"/>
<path d="M0 0 C7.92 0 15.84 0 24 0 C24 7.92 24 15.84 24 24 C16.08 24 8.16 24 0 24 C0 16.08 0 8.16 0 0 Z " fill="#FFFFFF" transform="translate(336,120)"/>
<path d="M0 0 C7.92 0 15.84 0 24 0 C24 7.92 24 15.84 24 24 C16.08 24 8.16 24 0 24 C0 16.08 0 8.16 0 0 Z " fill="#EDEDED" transform="translate(24,120)"/>
<path d="M0 0 C7.92 0 15.84 0 24 0 C24 7.92 24 15.84 24 24 C16.08 24 8.16 24 0 24 C0 16.08 0 8.16 0 0 Z " fill="#FFFFFF" transform="translate(0,120)"/>
<path d="M0 0 C7.92 0 15.84 0 24 0 C24 7.92 24 15.84 24 24 C16.08 24 8.16 24 0 24 C0 16.08 0 8.16 0 0 Z " fill="#EDEDED" transform="translate(336,96)"/>
<path d="M0 0 C7.92 0 15.84 0 24 0 C24 7.92 24 15.84 24 24 C16.08 24 8.16 24 0 24 C0 16.08 0 8.16 0 0 Z " fill="#FFFFFF" transform="translate(312,96)"/>
<path d="M0 0 C7.92 0 15.84 0 24 0 C24 7.92 24 15.84 24 24 C16.08 24 8.16 24 0 24 C0 16.08 0 8.16 0 0 Z " fill="#EDEDED" transform="translate(0,96)"/>
<path d="M0 0 C7.92 0 15.84 0 24 0 C24 7.92 24 15.84 24 24 C16.08 24 8.16 24 0 24 C0 16.08 0 8.16 0 0 Z " fill="#EDEDED" transform="translate(312,72)"/>
<path d="M0 0 C7.92 0 15.84 0 24 0 C24 7.92 24 15.84 24 24 C16.08 24 8.16 24 0 24 C0 16.08 0 8.16 0 0 Z " fill="#FFFFFF" transform="translate(288,72)"/>
<path d="M0 0 C7.92 0 15.84 0 24 0 C24 7.92 24 15.84 24 24 C16.08 24 8.16 24 0 24 C0 16.08 0 8.16 0 0 Z " fill="#EDEDED" transform="translate(24,72)"/>
<path d="M0 0 C7.92 0 15.84 0 24 0 C24 7.92 24 15.84 24 24 C16.08 24 8.16 24 0 24 C0 16.08 0 8.16 0 0 Z " fill="#FFFFFF" transform="translate(0,72)"/>
<path d="M0 0 C7.92 0 15.84 0 24 0 C24 7.92 24 15.84 24 24 C16.08 24 8.16 24 0 24 C0 16.08 0 8.16 0 0 Z " fill="#EDEDED" transform="translate(336,48)"/>
<path d="M0 0 C7.92 0 15.84 0 24 0 C24 7.92 24 15.84 24 24 C16.08 24 8.16 24 0 24 C0 16.08 0 8.16 0 0 Z " fill="#EDEDED" transform="translate(288,48)"/>
<path d="M0 0 C7.92 0 15.84 0 24 0 C24 7.92 24 15.84 24 24 C16.08 24 8.16 24 0 24 C0 16.08 0 8.16 0 0 Z " fill="#EDEDED" transform="translate(48,48)"/>
<path d="M0 0 C7.92 0 15.84 0 24 0 C24 7.92 24 15.84 24 24 C16.08 24 8.16 24 0 24 C0 16.08 0 8.16 0 0 Z " fill="#FFFFFF" transform="translate(24,48)"/>
<path d="M0 0 C7.92 0 15.84 0 24 0 C24 7.92 24 15.84 24 24 C16.08 24 8.16 24 0 24 C0 16.08 0 8.16 0 0 Z " fill="#EDEDED" transform="translate(0,48)"/>
<path d="M0 0 C7.92 0 15.84 0 24 0 C24 7.92 24 15.84 24 24 C16.08 24 8.16 24 0 24 C0 16.08 0 8.16 0 0 Z " fill="#EDEDED" transform="translate(312,24)"/>
<path d="M0 0 C7.92 0 15.84 0 24 0 C24 7.92 24 15.84 24 24 C16.08 24 8.16 24 0 24 C0 16.08 0 8.16 0 0 Z " fill="#EDEDED" transform="translate(72,24)"/>
<path d="M0 0 C7.92 0 15.84 0 24 0 C24 7.92 24 15.84 24 24 C16.08 24 8.16 24 0 24 C0 16.08 0 8.16 0 0 Z " fill="#FFFFFF" transform="translate(48,24)"/>
<path d="M0 0 C7.92 0 15.84 0 24 0 C24 7.92 24 15.84 24 24 C16.08 24 8.16 24 0 24 C0 16.08 0 8.16 0 0 Z " fill="#EDEDED" transform="translate(24,24)"/>
<path d="M0 0 C7.92 0 15.84 0 24 0 C24 7.92 24 15.84 24 24 C16.08 24 8.16 24 0 24 C0 16.08 0 8.16 0 0 Z " fill="#FFFFFF" transform="translate(0,24)"/>
<path d="M0 0 C7.92 0 15.84 0 24 0 C24 7.92 24 15.84 24 24 C16.08 24 8.16 24 0 24 C0 16.08 0 8.16 0 0 Z " fill="#EDEDED" transform="translate(336,0)"/>
<path d="M0 0 C7.92 0 15.84 0 24 0 C24 7.92 24 15.84 24 24 C16.08 24 8.16 24 0 24 C0 16.08 0 8.16 0 0 Z " fill="#EDEDED" transform="translate(288,0)"/>
<path d="M0 0 C7.92 0 15.84 0 24 0 C24 7.92 24 15.84 24 24 C16.08 24 8.16 24 0 24 C0 16.08 0 8.16 0 0 Z " fill="#EDEDED" transform="translate(240,0)"/>
<path d="M0 0 C7.92 0 15.84 0 24 0 C24 7.92 24 15.84 24 24 C16.08 24 8.16 24 0 24 C0 16.08 0 8.16 0 0 Z " fill="#EDEDED" transform="translate(192,0)"/>
<path d="M0 0 C7.92 0 15.84 0 24 0 C24 7.92 24 15.84 24 24 C16.08 24 8.16 24 0 24 C0 16.08 0 8.16 0 0 Z " fill="#EDEDED" transform="translate(144,0)"/>
<path d="M0 0 C7.92 0 15.84 0 24 0 C24 7.92 24 15.84 24 24 C16.08 24 8.16 24 0 24 C0 16.08 0 8.16 0 0 Z " fill="#EDEDED" transform="translate(96,0)"/>
<path d="M0 0 C7.92 0 15.84 0 24 0 C24 7.92 24 15.84 24 24 C16.08 24 8.16 24 0 24 C0 16.08 0 8.16 0 0 Z " fill="#FFFFFF" transform="translate(72,0)"/>
<path d="M0 0 C7.92 0 15.84 0 24 0 C24 7.92 24 15.84 24 24 C16.08 24 8.16 24 0 24 C0 16.08 0 8.16 0 0 Z " fill="#EDEDED" transform="translate(48,0)"/>
<path d="M0 0 C7.92 0 15.84 0 24 0 C24 7.92 24 15.84 24 24 C16.08 24 8.16 24 0 24 C0 16.08 0 8.16 0 0 Z " fill="#EDEDED" transform="translate(0,0)"/>
<path d="M0 0 C7.92 0 15.84 0 24 0 C24 7.92 24 15.84 24 24 C20.968125 24.12375 17.93625 24.2475 14.8125 24.375 C13.86608643 24.42962402 12.91967285 24.48424805 11.94458008 24.54052734 C7.43745014 24.62951218 5.55233667 24.43517434 1.90625 21.5625 C-0.83223453 17.51138812 -0.55512092 13.34258136 -0.3125 8.625 C-0.209375 5.77875 -0.10625 2.9325 0 0 Z " fill="#FEFEFE" transform="translate(264,48)"/>
<path d="M0 0 C5.28 0 10.56 0 16 0 C16 7.92 16 15.84 16 24 C8.08 24 0.16 24 -8 24 C-8 15.08133971 -8 15.08133971 -5.125 12 C-1.84405779 8.10001209 -0.8908747 4.98889832 0 0 Z " fill="#FEFEFE" transform="translate(296,216)"/>
<path d="M0 0 C0 6.93 0 13.86 0 21 C-7.92 21 -15.84 21 -24 21 C-24 14.4 -24 7.8 -24 1 C-20.37502451 0.83278531 -16.7500219 0.66620299 -13.125 0.5 C-12.09246094 0.45230469 -11.05992187 0.40460938 -9.99609375 0.35546875 C-9.00996094 0.31035156 -8.02382812 0.26523437 -7.0078125 0.21875 C-6.09660645 0.17685547 -5.18540039 0.13496094 -4.24658203 0.09179688 C-2.83190448 0.03399218 -1.41585803 0 0 0 Z " fill="#FEFEFE" transform="translate(192,291)"/>
<path d="M0 0 C7.92 0 15.84 0 24 0 C24 7.92 24 15.84 24 24 C19.17260095 24 18.2750235 23.90859735 14.5 21.5625 C11.31235404 19.59266949 8.71541222 18.56908603 5 18 C5 17.34 5 16.68 5 16 C3.35 16 1.7 16 0 16 C0 10.72 0 5.44 0 0 Z " fill="#EDEDED" transform="translate(216,24)"/>
<path d="M0 0 C0 7.92 0 15.84 0 24 C-7.92 24 -15.84 24 -24 24 C-24 20.37 -24 16.74 -24 13 C-18.25 10 -18.25 10 -16 10 C-16 9.34 -16 8.68 -16 8 C-15.31292969 7.67386719 -14.62585938 7.34773438 -13.91796875 7.01171875 C-13.01691406 6.57472656 -12.11585938 6.13773437 -11.1875 5.6875 C-10.29417969 5.25824219 -9.40085938 4.82898438 -8.48046875 4.38671875 C-5.99176595 3.14800289 -5.99176595 3.14800289 -4.36328125 1.33203125 C-3 0 -3 0 0 0 Z " fill="#FEFEFE" transform="translate(264,264)"/>
<path d="M0 0 C3.90381822 3.90381822 3.56244183 5.66179036 4 11 C5.65 11 7.3 11 9 11 C9 18.92 9 26.84 9 35 C8.01 35 7.02 35 6 35 C5.87939209 36.19544434 5.87939209 36.19544434 5.75634766 37.41503906 C5.387303 41.0275703 5.00629023 44.63874159 4.625 48.25 C4.43550781 50.13138672 4.43550781 50.13138672 4.2421875 52.05078125 C4.11328125 53.25605469 3.984375 54.46132812 3.8515625 55.703125 C3.73635254 56.81333008 3.62114258 57.92353516 3.50244141 59.06738281 C3.03074805 61.82053182 2.34038701 63.58847974 1 66 C0.54141491 67.6378039 0.08419743 69.27603532 -0.359375 70.91796875 C-1.62932083 75.04529269 -3.34772481 79.01368559 -5 83 C-5.66 83 -6.32 83 -7 83 C-7.04125 84.155 -7.0825 85.31 -7.125 86.5 C-7.66101594 91.11298565 -9.73739357 93.47762287 -12.6328125 96.96875 C-14.83342112 100.23822567 -14.8612811 103.11587073 -15 107 C-16.98 107 -18.96 107 -21 107 C-20.58325276 104.1869561 -20.01404517 103.01540437 -18.0625 100.875 C-15.5627449 97.39049289 -15.13409823 94.54996265 -14.4375 90.3828125 C-13.95345133 87.74647601 -13.13270025 85.42721482 -12 83 C-11.01 83 -10.02 83 -9 83 C-8.70996094 82.26265625 -8.41992188 81.5253125 -8.12109375 80.765625 C-7.46068165 79.13645507 -6.77544296 77.51633867 -6.03515625 75.921875 C-2.45953421 67.93775511 -1.31416478 59.58189422 0 51 C0.99 51 1.98 51 3 51 C3 37.8 3 24.6 3 11 C2.34 11 1.68 11 1 11 C0.67 7.37 0.34 3.74 0 0 Z " fill="#E9E9E9" transform="translate(303,133)"/>
<path d="M0 0 C-0.33 1.65 -0.66 3.3 -1 5 C-0.34 5.33 0.32 5.66 1 6 C-0.49739583 7.171875 -1.99479167 8.34375 -3.4921875 9.515625 C-5.10377656 10.92257151 -5.10377656 10.92257151 -5.85546875 12.90625 C-7.47763922 15.87377003 -9.70506787 17.29048692 -12.4375 19.25 C-13.40558594 19.95640625 -14.37367188 20.6628125 -15.37109375 21.390625 C-18 23 -18 23 -21 23 C-21.33 23.99 -21.66 24.98 -22 26 C-23.97746603 26.73080266 -25.98072489 27.39421747 -28 28 C-28.99 28.66 -29.98 29.32 -31 30 C-33.56089289 31.25761839 -36.13905947 32.47336266 -38.72265625 33.68359375 C-41.27707565 34.93595695 -41.27707565 34.93595695 -43 38 C-45.1640625 38.51171875 -45.1640625 38.51171875 -47.625 38.6875 C-48.44226563 38.75324219 -49.25953125 38.81898438 -50.1015625 38.88671875 C-50.72804687 38.92410156 -51.35453125 38.96148437 -52 39 C-52 36.66666667 -52 34.33333333 -52 32 C-50.97261719 31.56429688 -49.94523438 31.12859375 -48.88671875 30.6796875 C-32.70335445 23.75459456 -18.65295288 15.78564755 -5.88305664 3.50512695 C-2.20183628 0 -2.20183628 0 0 0 Z " fill="#707070" transform="translate(268,242)"/>
<path d="M0 0 C7.92 0 15.84 0 24 0 C24 3.96 24 7.92 24 12 C22.08594633 12.67413211 20.16863974 13.3390332 18.25 14 C17.18265625 14.37125 16.1153125 14.7425 15.015625 15.125 C12 16 12 16 8 16 C8 16.66 8 17.32 8 18 C5.09399739 19.25664978 3.20395416 20 0 20 C0 13.4 0 6.8 0 0 Z " fill="#EDEDED" transform="translate(120,24)"/>
<path d="M0 0 C2.3359375 0.12890625 2.3359375 0.12890625 5 1 C6.4765625 3.58984375 6.4765625 3.58984375 7.625 6.9375 C8.03878906 8.11957031 8.45257813 9.30164063 8.87890625 10.51953125 C10.05793419 14.17985841 11.19991889 17.84249882 12.24609375 21.54296875 C13.07271329 24.23697751 14.09075025 26.81665923 15.125 29.4375 C17.17734463 34.92086352 17.77471023 40.17625951 18 46 C18.66 46 19.32 46 20 46 C22.19265592 59.1559355 20.98534215 72.76826256 20 86 C19.01 86 18.02 86 17 86 C16.97421875 86.87140625 16.9484375 87.7428125 16.921875 88.640625 C16.4109703 99.3696236 14.72911871 109.34827595 8 118 C6.7922442 114.37673261 7.45688872 113.35853631 9 110 C9.66 110 10.32 110 11 110 C11.19916016 108.80503906 11.19916016 108.80503906 11.40234375 107.5859375 C13 98 13 98 13.46484375 95.21875 C13.64144531 94.1565625 13.81804687 93.094375 14 92 C14.18598755 90.93773193 14.18598755 90.93773193 14.37573242 89.85400391 C16.27064709 78.81134112 17.29155099 68.15141401 16.8125 56.9375 C16.77012207 55.92123535 16.72774414 54.9049707 16.68408203 53.85791016 C16.41364174 49.10313652 15.94260421 45.39647166 14 41 C13.01 41.495 13.01 41.495 12 42 C11.8040625 40.78828125 11.608125 39.5765625 11.40625 38.328125 C9.26955384 26.06802891 5.70208384 15.11943512 0.67089844 3.74560547 C0 2 0 2 0 0 Z " fill="#9A9A9A" transform="translate(286,98)"/>
<path d="M0 0 C2.64 0 5.28 0 8 0 C8 7.92 8 15.84 8 24 C0.08 24 -7.84 24 -16 24 C-14 20 -14 20 -11 18 C-10.5875 17.154375 -10.175 16.30875 -9.75 15.4375 C-7.76291075 11.53428896 -5.2885103 8.42837018 -2.5234375 5.05078125 C-0.82035493 2.98085265 -0.82035493 2.98085265 0 0 Z " fill="#FEFEFE" transform="translate(280,240)"/>
<path d="M0 0 C0.99 0.495 0.99 0.495 2 1 C3.37342831 1.0689472 4.75002102 1.08467708 6.125 1.0625 C8.043125 1.0315625 8.043125 1.0315625 10 1 C6.95425264 7.23056994 3.96507654 13.13076117 -2 17 C-2.66 17 -3.32 17 -4 17 C-4.226875 17.5775 -4.45375 18.155 -4.6875 18.75 C-6.34761639 21.59591381 -8.39187957 22.99841921 -11 25 C-11.825 25.86625 -12.65 26.7325 -13.5 27.625 C-16.02312585 30.02196956 -17.83069363 30.74895801 -21 32 C-21.680625 33.0209375 -21.680625 33.0209375 -22.375 34.0625 C-24.79429499 36.94704402 -27.33157291 36.51889481 -31 37 C-33.1078181 37.92791992 -35.10445458 38.98896783 -37.1328125 40.078125 C-39.37657134 41.18592225 -41.52287577 41.69035947 -44 42 C-44 42.66 -44 43.32 -44 44 C-46.56076097 44.67404284 -49.12326583 45.339414 -51.6875 46 C-52.7693457 46.28617187 -52.7693457 46.28617187 -53.87304688 46.578125 C-57.66850961 47.54865428 -61.04615439 48.24955239 -65 48 C-65 47.34 -65 46.68 -65 46 C-59.75614911 44.2520497 -55.52677733 43.80607799 -50 44 C-50 43.34 -50 42.68 -50 42 C-48.88625 41.731875 -47.7725 41.46375 -46.625 41.1875 C-42.78159049 40.34190981 -42.78159049 40.34190981 -41 37 C-38.8359375 35.83203125 -38.8359375 35.83203125 -36.375 34.8125 C-35.55773437 34.46832031 -34.74046875 34.12414062 -33.8984375 33.76953125 C-33.27195313 33.51558594 -32.64546875 33.26164062 -32 33 C-32 32.34 -32 31.68 -32 31 C-29.81723727 30.27241242 -27.60254527 29.63858929 -25.375 29.0625 C-24.26125 28.711875 -23.1475 28.36125 -22 28 C-21.67 27.34 -21.34 26.68 -21 26 C-20.175 25.608125 -19.35 25.21625 -18.5 24.8125 C-13.93854143 22.4503161 -9.68428903 19.60241594 -6 16 C-6 15.01 -6 14.02 -6 13 C-3 10.8125 -3 10.8125 0 9 C-0.185625 8.443125 -0.37125 7.88625 -0.5625 7.3125 C-1.07551165 4.600867 -0.6640724 2.65628961 0 0 Z " fill="#7E7E7E" transform="translate(268,239)"/>
<path d="M0 0 C2.64 0 5.28 0 8 0 C8.36351562 1.03447266 8.36351562 1.03447266 8.734375 2.08984375 C12.10440429 11.53888742 15.99780361 20.30533056 21 29 C21.39832031 29.69996094 21.79664062 30.39992187 22.20703125 31.12109375 C23.13428803 32.74952703 24.06655143 34.37510805 25 36 C23.515 36.495 23.515 36.495 22 37 C21.67 36.01 21.34 35.02 21 34 C20.34 33.67 19.68 33.34 19 33 C16 27.69230769 16 27.69230769 16 24 C10.72 24 5.44 24 0 24 C0 16.08 0 8.16 0 0 Z " fill="#ECECEC" transform="translate(48,192)"/>
<path d="M0 0 C5.94 0 11.88 0 18 0 C17.34 1.65 16.68 3.3 16 5 C15.67 5.99 15.34 6.98 15 8 C14.34 8 13.68 8 13 8 C12.87753906 8.70511719 12.75507812 9.41023438 12.62890625 10.13671875 C11.96594799 13.15503183 11.01824425 15.91889442 9.9375 18.8125 C9.57527344 19.78832031 9.21304688 20.76414062 8.83984375 21.76953125 C8.56269531 22.50558594 8.28554688 23.24164063 8 24 C5.36 24 2.72 24 0 24 C0 16.08 0 8.16 0 0 Z " fill="#EDEDED" transform="translate(48,96)"/>
<path d="M0 0 C5.34108528 5.17417637 10.51824836 10.63762681 14.9375 16.625 C17.65275775 19.75166044 20.83151553 22.01937662 24.171875 24.44921875 C24.77515625 24.96097656 25.3784375 25.47273438 26 26 C26 26.66 26 27.32 26 28 C27.10794922 28.40798828 27.10794922 28.40798828 28.23828125 28.82421875 C30.85024901 29.93624463 32.88262286 31.17357235 35.1875 32.8125 C39.90083929 36.04201025 44.83982186 38.56534392 50 41 C49.505 41.99 49.505 41.99 49 43 C49.66386719 43.32613281 50.32773438 43.65226562 51.01171875 43.98828125 C51.89472656 44.42527344 52.77773437 44.86226563 53.6875 45.3125 C54.55761719 45.74175781 55.42773438 46.17101562 56.32421875 46.61328125 C59 48 59 48 61.4609375 49.60546875 C64.36083359 51.19818091 66.66558192 51.59574757 69.9375 52 C74.54161091 52.67061101 77.8964704 53.75282903 82 56 C85.2366963 56.70758326 85.2366963 56.70758326 88 57 C88 57.33 88 57.66 88 58 C79.42857143 58.14285714 79.42857143 58.14285714 76 57 C76 56.34 76 55.68 76 55 C75.05898437 54.96261719 74.11796875 54.92523438 73.1484375 54.88671875 C71.28058594 54.78810547 71.28058594 54.78810547 69.375 54.6875 C68.14523438 54.62949219 66.91546875 54.57148438 65.6484375 54.51171875 C61.8576575 53.98003547 59.29970329 52.89352204 56 51 C56 50.34 56 49.68 56 49 C55.071875 48.731875 54.14375 48.46375 53.1875 48.1875 C50.14311405 47.053317 49.10288378 46.30315842 47 44 C46.01 43.67 45.02 43.34 44 43 C43.41347656 42.40574219 42.82695313 41.81148438 42.22265625 41.19921875 C39.5666543 38.57122385 36.62037614 36.72079357 33.4375 34.8125 C32.86064453 34.45736328 32.28378906 34.10222656 31.68945312 33.73632812 C29.14404404 32.18911868 26.83653608 30.94551203 24 30 C22.75252745 28.5555581 21.50997224 27.10569871 20.3203125 25.61328125 C17.5640823 22.24546151 14.32924521 19.31461209 11.1875 16.3125 C9 14 9 14 9 12 C8.1028125 11.566875 8.1028125 11.566875 7.1875 11.125 C5 10 5 10 2 8 C2 7.01 2 6.02 2 5 C1.34 5 0.68 5 0 5 C0 3.35 0 1.7 0 0 Z " fill="#9D9D9D" transform="translate(72,228)"/>
<path d="M0 0 C5.78021498 1.52903482 11.50063195 3.15176788 17.1875 5 C32.74418239 9.75444275 47.82140005 10.63322563 64 11 C64 11.33 64 11.66 64 12 C58.72 12 53.44 12 48 12 C48 13.32 48 14.64 48 16 C55.92 16.33 63.84 16.66 72 17 C72 17.33 72 17.66 72 18 C68.16668301 18.02929981 64.33339529 18.04689897 60.5 18.0625 C59.42234375 18.07087891 58.3446875 18.07925781 57.234375 18.08789062 C51.38671618 18.10571885 45.78136329 17.89105963 40 17 C40 16.34 40 15.68 40 15 C38.700625 15.0928125 38.700625 15.0928125 37.375 15.1875 C34 15 34 15 31.375 13.625 C28.04946921 12.02381851 25.68057221 11.56263202 22.0625 11.0625 C16.69588582 10.2618091 13.51328654 8.95099505 9 6 C6.88110073 4.94437509 4.74626682 3.93165361 2.6015625 2.9296875 C1 2 1 2 0 0 Z " fill="#868686" transform="translate(120,270)"/>
<path d="M0 0 C7.92 0 15.84 0 24 0 C24 2.97 24 5.94 24 9 C16.08 8.67 8.16 8.34 0 8 C0 5.36 0 2.72 0 0 Z " fill="#ECECEC" transform="translate(168,24)"/>
<path d="M0 0 C3.96 0 7.92 0 12 0 C12 7.92 12 15.84 12 24 C10.35 24 8.7 24 7 24 C6.80664062 23.34773438 6.61328125 22.69546875 6.4140625 22.0234375 C3.94137231 13.56546339 3.94137231 13.56546339 0.875 5.3125 C0 3 0 3 0 0 Z " fill="#FBFBFB" transform="translate(300,120)"/>
<path d="M0 0 C5.94 0 11.88 0 18 0 C18 6.27 18 12.54 18 19 C17.01 18.67 16.02 18.34 15 18 C15 17.34 15 16.68 15 16 C14.01 16.33 13.02 16.66 12 17 C11.773125 16.2575 11.54625 15.515 11.3125 14.75 C9.72955766 11.4333589 7.86811161 10.26780918 5 8 C0 1.8451087 0 1.8451087 0 0 Z " fill="#EAEAEA" transform="translate(270,72)"/>
<path d="M0 0 C7.25824762 8.83612754 5.64773561 25.76845857 4.6875 36.625 C3.50480769 45.49519231 3.50480769 45.49519231 1 48 C0.87625 49.299375 0.7525 50.59875 0.625 51.9375 C0.25832853 55.74949961 0.25832853 55.74949961 -2.0625 58 C-3.0215625 58.495 -3.0215625 58.495 -4 59 C-3.45937265 53.38021492 -2.59295886 47.96918952 -1.4375 42.4375 C1.18334469 28.55770465 0.25249498 14.06461789 0 0 Z " fill="#6C6C6C" transform="translate(299,136)"/>
<path d="M0 0 C0.66 0 1.32 0 2 0 C1.39478515 3.28857706 0.2729301 5.22023119 -1.8125 7.8125 C-3.80165967 10.36051882 -5.54287928 12.83509717 -7.0625 15.6875 C-10.12992171 20.93180163 -13.75212351 24.07095266 -19 27 C-21.04795372 28.33177344 -23.09350884 29.66673054 -25.1328125 31.01171875 C-27 32 -27 32 -30 32 C-30 32.66 -30 33.32 -30 34 C-31.24460783 34.67667998 -32.49596896 35.34094719 -33.75 36 C-34.44609375 36.37125 -35.1421875 36.7425 -35.859375 37.125 C-38 38 -38 38 -42 38 C-42 38.66 -42 39.32 -42 40 C-45.90028225 42.60018816 -49.47434569 42.15085514 -54 42 C-53.38125 41.71125 -52.7625 41.4225 -52.125 41.125 C-49.86674235 40.06279958 -49.86674235 40.06279958 -48 38 C-43.04562817 35.47424181 -39.66781474 34.65299093 -34 35 C-33.566875 34.071875 -33.566875 34.071875 -33.125 33.125 C-30.64496456 28.44048862 -26.77248717 27.59082906 -22 26 C-21.566875 25.1028125 -21.566875 25.1028125 -21.125 24.1875 C-19.6307637 21.28204054 -17.5819683 19.98151055 -15 18 C-14.13375 17.13375 -13.2675 16.2675 -12.375 15.375 C-10 13 -10 13 -7 11 C-5.97105377 9.26365323 -4.9451125 7.52465224 -3.9765625 5.75390625 C-2.81541532 3.66848592 -1.57818164 1.79338822 0 0 Z " fill="#DFDFDF" transform="translate(278,240)"/>
<path d="M0 0 C0.33 0 0.66 0 1 0 C1.05454409 2.35448675 1.0939279 4.70767875 1.125 7.0625 C1.14820313 8.37347656 1.17140625 9.68445313 1.1953125 11.03515625 C0.9044173 16.94032873 -0.8942581 22.00936138 -3.125 27.4375 C-3.47820312 28.30246094 -3.83140625 29.16742188 -4.1953125 30.05859375 C-4.46085937 30.69925781 -4.72640625 31.33992188 -5 32 C-5.66 32 -6.32 32 -7 32 C-7.04125 33.155 -7.0825 34.31 -7.125 35.5 C-7.66101594 40.11298565 -9.73739357 42.47762287 -12.6328125 45.96875 C-14.83342112 49.23822567 -14.8612811 52.11587073 -15 56 C-16.98 56 -18.96 56 -21 56 C-20.58325276 53.1869561 -20.01404517 52.01540437 -18.0625 49.875 C-15.5627449 46.39049289 -15.13409823 43.54996265 -14.4375 39.3828125 C-13.95345133 36.74647601 -13.13270025 34.42721482 -12 32 C-11.01 32 -10.02 32 -9 32 C-8.70996094 31.26265625 -8.41992188 30.5253125 -8.12109375 29.765625 C-7.46068165 28.13645507 -6.77544296 26.51633867 -6.03515625 24.921875 C-2.45953421 16.93775511 -1.31416478 8.58189422 0 0 Z " fill="#C9C9C9" transform="translate(303,184)"/>
<path d="M0 0 C1.32 0 2.64 0 4 0 C4 3.3 4 6.6 4 10 C-3.92 10 -11.84 10 -20 10 C-20 9.34 -20 8.68 -20 8 C-21.32 7.67 -22.64 7.34 -24 7 C-17.33227332 5.23305243 -10.85853914 3.73484348 -4 3 C-2.65915264 2.69830934 -1.3193938 2.38482319 0 2 C0 1.34 0 0.68 0 0 Z " fill="#E8E8E8" transform="translate(236,278)"/>
<path d="M0 0 C2.72831912 0.68207978 5.18045669 1.37803826 7.79296875 2.33984375 C8.50203369 2.59749512 9.21109863 2.85514648 9.94165039 3.12060547 C11.05334595 3.52496826 11.05334595 3.52496826 12.1875 3.9375 C18.08025683 6.05535643 23.82432232 7.87714951 30 9 C30 9.33 30 9.66 30 10 C20.1 10 10.2 10 0 10 C0 6.7 0 3.4 0 0 Z " fill="#EBEBEB" transform="translate(120,278)"/>
<path d="M0 0 C1.65 0 3.3 0 5 0 C4.67 0.66 4.34 1.32 4 2 C3.34 1.67 2.68 1.34 2 1 C2 1.66 2 2.32 2 3 C2.66 3 3.32 3 4 3 C3.57045318 8.72729096 1.15218029 12.39447802 -2 17 C-2.66 17.99 -3.32 18.98 -4 20 C-6.1640625 20.51171875 -6.1640625 20.51171875 -8.625 20.6875 C-9.44226563 20.75324219 -10.25953125 20.81898438 -11.1015625 20.88671875 C-12.04128906 20.94279297 -12.04128906 20.94279297 -13 21 C-12.47946423 16.66574297 -9.70887311 13.77363405 -7.0625 10.5 C-3.04280862 5.56467286 -3.04280862 5.56467286 0 0 Z " fill="#6F6F6F" transform="translate(282,220)"/>
<path d="M0 0 C2.3359375 0.12890625 2.3359375 0.12890625 5 1 C6.4765625 3.58984375 6.4765625 3.58984375 7.625 6.9375 C8.03621094 8.12085937 8.44742187 9.30421875 8.87109375 10.5234375 C9.24363281 11.67070313 9.61617188 12.81796875 10 14 C10.30035156 14.87914063 10.60070312 15.75828125 10.91015625 16.6640625 C13.44957755 24.49926187 15.19560763 32.73933912 15 41 C13.515 41.495 13.515 41.495 12 42 C11.8040625 40.78828125 11.608125 39.5765625 11.40625 38.328125 C9.26955384 26.06802891 5.70208384 15.11943512 0.67089844 3.74560547 C0 2 0 2 0 0 Z " fill="#9D9D9D" transform="translate(286,98)"/>
<path d="M0 0 C0 1.98 0 3.96 0 6 C-16.8929385 6.18451025 -16.8929385 6.18451025 -24 5 C-24 3.68 -24 2.36 -24 1 C-21.50018262 0.8301095 -19.00020399 0.66402047 -16.5 0.5 C-15.80390625 0.45230469 -15.1078125 0.40460938 -14.390625 0.35546875 C-9.58304475 0.04386633 -4.81771254 -0.04340282 0 0 Z " fill="#797979" transform="translate(192,281)"/>
<path d="M0 0 C0.99 0 1.98 0 3 0 C3 7.92 3 15.84 3 24 C1.02 24 -0.96 24 -3 24 C-2.69329496 20.56195706 -2.3786405 17.12468713 -2.0625 13.6875 C-1.97548828 12.71103516 -1.88847656 11.73457031 -1.79882812 10.72851562 C-1.71181641 9.79072266 -1.62480469 8.85292969 -1.53515625 7.88671875 C-1.456604 7.02264404 -1.37805176 6.15856934 -1.29711914 5.26831055 C-1 3 -1 3 0 0 Z " fill="#FCFCFC" transform="translate(309,168)"/>
<path d="M0 0 C3.17538332 0.34021964 4.02276865 1.02466604 6.25 3.4375 C8 6 8 6 8 8 C8.99 8.33 9.98 8.66 11 9 C11 9.66 11 10.32 11 11 C11.639375 11.268125 12.27875 11.53625 12.9375 11.8125 C15 13 15 13 16 16 C16.66 16 17.32 16 18 16 C19.5625 17 19.5625 17 21 19 C21.56005673 21.6787619 21.77554153 24.26160661 22 27 C19.640625 26.7734375 19.640625 26.7734375 17 26 C15.734375 24.1015625 15.734375 24.1015625 14.75 21.625 C12.29616494 16.17811134 8.98004728 12.04179524 5.0859375 7.54296875 C3.10788953 5.13152825 1.52919483 2.7126163 0 0 Z " fill="#CACACA" transform="translate(267,72)"/>
<path d="M0 0 C5.28 0 10.56 0 16 0 C16 0.66 16 1.32 16 2 C14.20963542 2.9765625 12.41927083 3.953125 10.62890625 4.9296875 C8.83381685 5.91410024 8.83381685 5.91410024 8 8 C5.40835574 9.50129076 2.70697703 10.71096332 0 12 C0 8.04 0 4.08 0 0 Z " fill="#ECECEC" transform="translate(96,48)"/>
<path d="M0 0 C0.66 0.33 1.32 0.66 2 1 C0.4375 3.4375 0.4375 3.4375 -2 6 C-4.32249342 6.40197001 -6.65885633 6.72686657 -9 7 C-11.10893839 7.92616876 -13.10419852 8.98883033 -15.1328125 10.078125 C-17.37657134 11.18592225 -19.52287577 11.69035947 -22 12 C-22 12.66 -22 13.32 -22 14 C-24.56076097 14.67404284 -27.12326583 15.339414 -29.6875 16 C-30.7693457 16.28617187 -30.7693457 16.28617187 -31.87304688 16.578125 C-35.66850961 17.54865428 -39.04615439 18.24955239 -43 18 C-43 17.34 -43 16.68 -43 16 C-37.75614911 14.2520497 -33.52677733 13.80607799 -28 14 C-28 13.34 -28 12.68 -28 12 C-26.88625 11.5875 -25.7725 11.175 -24.625 10.75 C-20.46638118 9.20346738 -16.37971451 7.50538817 -12.296875 5.76953125 C-10 5 -10 5 -6 5 C-6 4.34 -6 3.68 -6 3 C-4.03533587 1.93224776 -2.03144641 0.93446535 0 0 Z " fill="#9F9F9F" transform="translate(246,269)"/>
<path d="M0 0 C6.97471835 1.84501568 13.8736369 3.87083305 20.76171875 6.015625 C25.47958433 7.44976508 30.23332562 8.73907612 35 10 C35 10.33 35 10.66 35 11 C24.71159425 11.36170176 16.52148637 11.59727977 8 5 C6.78110556 4.45556048 5.55076541 3.93631542 4.3125 3.4375 C1 2 1 2 0 0 Z " fill="#777777" transform="translate(120,270)"/>
<path d="M0 0 C5.34108528 5.17417637 10.51824836 10.63762681 14.9375 16.625 C18.14857482 20.3226013 22.07808152 23.09208181 26 26 C25.01 26.66 24.02 27.32 23 28 C17.53170314 23.73206099 11.24417442 18.73252326 9 12 C7.11683841 10.89163577 7.11683841 10.89163577 5 10 C4.01 9.34 3.02 8.68 2 8 C2 7.01 2 6.02 2 5 C1.34 5 0.68 5 0 5 C0 3.35 0 1.7 0 0 Z " fill="#BEBEBE" transform="translate(72,228)"/>
<path d="M0 0 C0.66 0 1.32 0 2 0 C4.19265592 13.1559355 2.98534215 26.76826256 2 40 C1.34 40 0.68 40 0 40 C0 26.8 0 13.6 0 0 Z " fill="#B9B9B9" transform="translate(304,144)"/>
<path d="M0 0 C3.63 0 7.26 0 11 0 C10.67 0.99 10.34 1.98 10 3 C7.9375 3.6875 7.9375 3.6875 6 4 C5.67 5.32 5.34 6.64 5 8 C4.34 8 3.68 8 3 8 C2.34 9.65 1.68 11.3 1 13 C0.67 13 0.34 13 0 13 C0 8.71 0 4.42 0 0 Z " fill="#EBEBEB" transform="translate(72,72)"/>
<path d="M0 0 C4.85876894 5.91502306 4.32166072 12.2467181 4.625 19.625 C4.6765625 20.66785156 4.728125 21.71070313 4.78125 22.78515625 C5.05746146 29.29237331 4.85472199 35.54190061 4 42 C2 40 2 40 1.77294922 36.83544922 C1.77326611 35.49182037 1.78457819 34.1481659 1.8046875 32.8046875 C1.8075174 32.09724396 1.81034729 31.38980042 1.81326294 30.66091919 C1.82446863 28.3987749 1.84957321 26.13702485 1.875 23.875 C1.88502933 22.34245363 1.89415526 20.80990106 1.90234375 19.27734375 C1.92440914 15.51807699 1.95894104 11.75910536 2 8 C1.34 8 0.68 8 0 8 C0 5.36 0 2.72 0 0 Z " fill="#7F7F7F" transform="translate(299,136)"/>
<path d="M0 0 C0.33 0 0.66 0 1 0 C0.77328037 6.3481495 -0.62223481 9.13302953 -4.6328125 13.96875 C-6.83342112 17.23822567 -6.8612811 20.11587073 -7 24 C-8.98 24 -10.96 24 -13 24 C-12.4175362 20.06836936 -10.44536389 18.05670486 -8 15 C-5.0754917 10.14081698 -2.48311114 5.09691234 0 0 Z " fill="#E3E3E3" transform="translate(295,216)"/>
<path d="M0 0 C4.44410514 0.94623145 7.82911108 3.05482703 11.6875 5.375 C12.37650391 5.77460938 13.06550781 6.17421875 13.77539062 6.5859375 C18.87902617 9.63707852 18.87902617 9.63707852 20 13 C22.01508358 13.73323796 22.01508358 13.73323796 24 14 C22 15 22 15 19.5 14.25 C17 13 17 13 15 10 C12.44816596 8.79549696 12.44816596 8.79549696 10 8 C10 7.34 10 6.68 10 6 C6.7 6 3.4 6 0 6 C0 4.02 0 2.04 0 0 Z " fill="#B8B8B8" transform="translate(96,258)"/>
<path d="M0 0 C0.66 0.33 1.32 0.66 2 1 C0.02 1.99 0.02 1.99 -2 3 C-2 3.66 -2 4.32 -2 5 C-4.90548882 7.04169485 -6.40142046 8 -10 8 C-10 8.66 -10 9.32 -10 10 C-11.95513161 10.696553 -13.91422476 11.38199565 -15.875 12.0625 C-16.96554688 12.44535156 -18.05609375 12.82820313 -19.1796875 13.22265625 C-22 14 -22 14 -24 13 C-20.7 11.35 -17.4 9.7 -14 8 C-14 7.34 -14 6.68 -14 6 C-11.81723727 5.27241242 -9.60254527 4.63858929 -7.375 4.0625 C-6.26125 3.711875 -5.1475 3.36125 -4 3 C-3.67 2.34 -3.34 1.68 -3 1 C-2.01 0.67 -1.02 0.34 0 0 Z " fill="#898989" transform="translate(250,264)"/>
<path d="M0 0 C-1 2 -1 2 -3.5 3.125 C-10.36241308 4.84060327 -17.07184308 4.00773192 -24 3 C-24 2.34 -24 1.68 -24 1 C-21.50018262 0.8301095 -19.00020399 0.66402047 -16.5 0.5 C-15.80390625 0.45230469 -15.1078125 0.40460938 -14.390625 0.35546875 C-9.58304475 0.04386633 -4.81771254 -0.04340282 0 0 Z " fill="#646464" transform="translate(192,281)"/>
<path d="M0 0 C4.93181619 4.93181619 5.10554935 10.33450174 5.1953125 17.03125 C5.1821641 19.18758729 5.15852813 21.3438833 5.125 23.5 C5.11597656 24.60859375 5.10695313 25.7171875 5.09765625 26.859375 C5.07426167 29.57314592 5.04148175 32.28645545 5 35 C4.67 35 4.34 35 4 35 C3.67 27.08 3.34 19.16 3 11 C2.34 11 1.68 11 1 11 C0.67 7.37 0.34 3.74 0 0 Z " fill="#D7D7D7" transform="translate(303,133)"/>
<path d="M0 0 C0.66 0.33 1.32 0.66 2 1 C2.60488416 7.04884158 2.60488416 7.04884158 0.921875 9.6953125 C-0.35583993 11.15660717 -1.67669044 12.57986291 -3 14 C-3.33 14.99 -3.66 15.98 -4 17 C-5.32 16.67 -6.64 16.34 -8 16 C-7.67386719 15.43152344 -7.34773438 14.86304688 -7.01171875 14.27734375 C-4.36824701 9.60643056 -2.0115125 4.97584671 0 0 Z " fill="#8B8B8B" transform="translate(286,223)"/>
<path d="M0 0 C0 0.99 0 1.98 0 3 C-1.41953114 4.25446938 -2.84965199 5.50052471 -4.34765625 6.66015625 C-6.25612106 8.14464984 -6.25612106 8.14464984 -8.625 10.8125 C-11 13 -11 13 -15 13 C-15 11 -15 11 -12.875 8.625 C-8.95770982 5.04834375 -4.81812404 2.22374956 0 0 Z " fill="#969696" transform="translate(263,256)"/>
<path d="M0 0 C0.33 0 0.66 0 1 0 C1 1.98 1 3.96 1 6 C0.01 6 -0.98 6 -2 6 C-2.061875 6.680625 -2.12375 7.36125 -2.1875 8.0625 C-3.28538855 12.03178937 -5.49023975 14.78639555 -8 18 C-9.12377697 14.69564916 -8.89554742 12.9493138 -7.5625 9.75 C-7.27503906 9.04359375 -6.98757813 8.3371875 -6.69140625 7.609375 C-6.46324219 7.07828125 -6.23507812 6.5471875 -6 6 C-5.01 6 -4.02 6 -3 6 C-2.690625 5.195625 -2.38125 4.39125 -2.0625 3.5625 C-1 1 -1 1 0 0 Z " fill="#B7B7B7" transform="translate(297,210)"/>
<path d="M0 0 C0.33 0.99 0.66 1.98 1 3 C1.66 3 2.32 3 3 3 C2.34 5.31 1.68 7.62 1 10 C-0.32 10.33 -1.64 10.66 -3 11 C-3.33 12.65 -3.66 14.3 -4 16 C-4.66 16 -5.32 16 -6 16 C-5.52412884 9.97229862 -2.80277043 5.23321711 0 0 Z " fill="#6D6D6D" transform="translate(294,196)"/>
<path d="M0 0 C4.86605337 1.21651334 8.03506407 3.36683606 11.8984375 6.40234375 C15.11354264 8.84654078 18.54144893 10.92119005 22 13 C19 14 19 14 17.23828125 13.21142578 C16.60277344 12.7936084 15.96726562 12.37579102 15.3125 11.9453125 C14.61382812 11.49542969 13.91515625 11.04554688 13.1953125 10.58203125 C12.10863281 9.86080078 12.10863281 9.86080078 11 9.125 C9.56424971 8.1874193 8.12681346 7.25241402 6.6875 6.3203125 C6.05199219 5.90023926 5.41648437 5.48016602 4.76171875 5.04736328 C2.87102947 3.83868755 2.87102947 3.83868755 0 3 C0 2.01 0 1.02 0 0 Z " fill="#959595" transform="translate(96,255)"/>
<path d="M0 0 C1.66666667 1.66666667 3.33333333 3.33333333 5 5 C5.763125 5.721875 6.52625 6.44375 7.3125 7.1875 C9 9 9 9 9 11 C9.598125 11.268125 10.19625 11.53625 10.8125 11.8125 C12.99847854 12.99917406 14.41332594 14.09599113 16 16 C16 16.66 16 17.32 16 18 C15.34 18 14.68 18 14 18 C14 17.34 14 16.68 14 16 C13.236875 15.9175 12.47375 15.835 11.6875 15.75 C9 15 9 15 7.1875 13.125 C6 11 6 11 6 8 C5.195625 7.79375 4.39125 7.5875 3.5625 7.375 C2.2940625 6.694375 2.2940625 6.694375 1 6 C0.1875 2.875 0.1875 2.875 0 0 Z " fill="#E2E2E2" transform="translate(80,240)"/>
<path d="M0 0 C0.66 0 1.32 0 2 0 C1.38998481 3.3327659 0.20748126 5.34768555 -1.875 8 C-2.38804687 8.66 -2.90109375 9.32 -3.4296875 10 C-3.94789063 10.66 -4.46609375 11.32 -5 12 C-5.49371094 12.71671875 -5.98742187 13.4334375 -6.49609375 14.171875 C-8.59754167 16.72636234 -10.86901458 17.16507056 -14 18 C-14 17.34 -14 16.68 -14 16 C-12.9275 15.278125 -11.855 14.55625 -10.75 13.8125 C-6.71861839 11.0653085 -5.19874001 8.31895359 -3 4 C-1.375 1.5625 -1.375 1.5625 0 0 Z " fill="#D3D3D3" transform="translate(278,240)"/>
<path d="M0 0 C0 0.66 0 1.32 0 2 C7.92 2.33 15.84 2.66 24 3 C24 3.33 24 3.66 24 4 C20.16668301 4.02929981 16.33339529 4.04689897 12.5 4.0625 C11.42234375 4.07087891 10.3446875 4.07925781 9.234375 4.08789062 C3.38671618 4.10571885 -2.21863671 3.89105963 -8 3 C-8 2.34 -8 1.68 -8 1 C-5.23735711 0.40267181 -2.83967231 0 0 0 Z " fill="#919191" transform="translate(168,284)"/>
<path d="M0 0 C1.98 0 3.96 0 6 0 C6.33 5.28 6.66 10.56 7 16 C4.94876752 13.94876752 4.35852882 12.72994937 3.375 10.0625 C3.11460937 9.37285156 2.85421875 8.68320313 2.5859375 7.97265625 C2 6 2 6 2 3 C1.34 3 0.68 3 0 3 C0 2.01 0 1.02 0 0 Z " fill="#E3E3E3" transform="translate(289,96)"/>
<path d="M0 0 C8.06480039 2.13337405 16.03946386 4.50679552 24 7 C24 7.66 24 8.32 24 9 C15.35525606 8.3350197 5.93225878 6.73735104 0 0 Z " fill="#717171" transform="translate(120,270)"/>
<path d="M0 0 C0.66 0 1.32 0 2 0 C2.33 0.66 2.66 1.32 3 2 C3.804375 2.309375 4.60875 2.61875 5.4375 2.9375 C8 4 8 4 10 7 C13.05429073 8.21284876 13.05429073 8.21284876 16 9 C16 9.99 16 10.98 16 12 C13.36 11.34 10.72 10.68 8 10 C8 9.34 8 8.68 8 8 C7.34 8 6.68 8 6 8 C6 7.01 6 6.02 6 5 C4.35 4.67 2.7 4.34 1 4 C0.67 2.68 0.34 1.36 0 0 Z " fill="#E1E1E1" transform="translate(104,264)"/>
<path d="M0 0 C3.63 0 7.26 0 11 0 C11 0.66 11 1.32 11 2 C12.423125 1.9690625 12.423125 1.9690625 13.875 1.9375 C17 2 17 2 19 3 C19 3.66 19 4.32 19 5 C13.72 4.67 8.44 4.34 3 4 C4.32 3.34 5.64 2.68 7 2 C4.69 1.67 2.38 1.34 0 1 C0 0.67 0 0.34 0 0 Z " fill="#D8D8D8" transform="translate(141,285)"/>
<path d="M0 0 C0.99 0 1.98 0 3 0 C3 0.66 3 1.32 3 2 C5.64 2 8.28 2 11 2 C10.2890625 3.953125 10.2890625 3.953125 9 6 C6.8359375 6.609375 6.8359375 6.609375 4.375 6.75 C3.55773437 6.80671875 2.74046875 6.8634375 1.8984375 6.921875 C1.27195313 6.94765625 0.64546875 6.9734375 0 7 C0 4.66666667 0 2.33333333 0 0 Z " fill="#757575" transform="translate(216,274)"/>
<path d="M0 0 C0.66 0 1.32 0 2 0 C2.38671875 0.71285156 2.7734375 1.42570313 3.171875 2.16015625 C6.06058173 7.47280253 8.97469686 12.76389841 12 18 C11.01 18.33 10.02 18.66 9 19 C8.67 18.01 8.34 17.02 8 16 C7.34 15.67 6.68 15.34 6 15 C4.89270545 13.07801205 3.86126017 11.11181397 2.875 9.125 C2.33617187 8.05507812 1.79734375 6.98515625 1.2421875 5.8828125 C0 3 0 3 0 0 Z " fill="#E6E6E6" transform="translate(61,210)"/>
<path d="M0 0 C0 0.33 0 0.66 0 1 C-2.05078125 1.22786458 -4.1015625 1.45572917 -6.15234375 1.68359375 C-8.01140229 1.81886614 -8.01140229 1.81886614 -9 3 C-10.99958364 3.04080783 -13.00045254 3.04254356 -15 3 C-15 3.66 -15 4.32 -15 5 C-18.63 5 -22.26 5 -26 5 C-26 4.34 -26 3.68 -26 3 C-8.14350797 -0.44419134 -8.14350797 -0.44419134 0 0 Z " fill="#919191" transform="translate(218,282)"/>
<path d="M0 0 C0 3.94720688 -1.52509109 5.01555103 -4 8 C-4.309375 8.680625 -4.61875 9.36125 -4.9375 10.0625 C-6.43657008 12.79609839 -8.47136569 14.22995598 -11 16 C-11.66 16 -12.32 16 -13 16 C-12.52406444 11.71657993 -10.05238315 9.84426611 -7 7 C-6.113125 6.113125 -5.22625 5.22625 -4.3125 4.3125 C-2.875 2.875 -1.4375 1.4375 0 0 Z " fill="#A1A1A1" transform="translate(277,240)"/>
<path d="M0 0 C0.33 0 0.66 0 1 0 C1.02932572 3.18748029 1.04690739 6.37492528 1.0625 9.5625 C1.07087891 10.45775391 1.07925781 11.35300781 1.08789062 12.27539062 C1.10622843 17.2816114 1.04747422 22.09202329 0 27 C-0.66 27.33 -1.32 27.66 -2 28 C-2 24.04 -2 20.08 -2 16 C-1.34 16 -0.68 16 0 16 C0 10.72 0 5.44 0 0 Z " fill="#DEDEDE" transform="translate(306,168)"/>
<path d="M0 0 C0.99 0.33 1.98 0.66 3 1 C3.12375 1.78375 3.2475 2.5675 3.375 3.375 C3.79117993 6.14057822 3.79117993 6.14057822 6 8 C5.34 8 4.68 8 4 8 C4.495 9.216875 4.99 10.43375 5.5 11.6875 C6.72479441 14.92486738 7.32803185 17.50099357 7 21 C4.65024052 17.47536079 3.40823894 13.96867339 2 10 C1.4121875 8.39125 1.4121875 8.39125 0.8125 6.75 C0 4 0 4 0 0 Z " fill="#D2D2D2" transform="translate(296,112)"/>
<path d="M0 0 C-2.44700653 3.15335894 -3.66087096 3.94371901 -7.671875 4.609375 C-9.03045815 4.67532564 -10.39011102 4.72172254 -11.75 4.75 C-12.79607422 4.79447266 -12.79607422 4.79447266 -13.86328125 4.83984375 C-15.57490813 4.91018458 -17.28745815 4.95739946 -19 5 C-19 4.34 -19 3.68 -19 3 C-16.77228658 2.49356447 -14.54275924 1.9951038 -12.3125 1.5 C-10.45044922 1.08234375 -10.45044922 1.08234375 -8.55078125 0.65625 C-5.57601782 0.10645874 -3.00631398 -0.13795705 0 0 Z " fill="#6B6B6B" transform="translate(213,277)"/>
<path d="M0 0 C2.475 0.99 2.475 0.99 5 2 C4.67 2.66 4.34 3.32 4 4 C4.71027344 4.33773438 5.42054687 4.67546875 6.15234375 5.0234375 C7.53099609 5.69246094 7.53099609 5.69246094 8.9375 6.375 C9.85402344 6.81585938 10.77054688 7.25671875 11.71484375 7.7109375 C14 9 14 9 15 11 C6.6 8.69411765 6.6 8.69411765 3 7 C2.67 6.34 2.34 5.68 2 5 C1.01 4.67 0.02 4.34 -1 4 C-0.67 2.68 -0.34 1.36 0 0 Z " fill="#9A9A9A" transform="translate(117,267)"/>
<path d="M0 0 C-2.56076097 0.67404284 -5.12326583 1.339414 -7.6875 2 C-8.7693457 2.28617187 -8.7693457 2.28617187 -9.87304688 2.578125 C-13.66850961 3.54865428 -17.04615439 4.24955239 -21 4 C-21 3.34 -21 2.68 -21 2 C-14.31551321 -0.17972395 -6.89994696 -2.10963895 0 0 Z " fill="#B2B2B2" transform="translate(224,283)"/>
<path d="M0 0 C0 0.99 0 1.98 0 3 C-1.32 3 -2.64 3 -4 3 C-4 3.66 -4 4.32 -4 5 C-7.90028225 7.60018816 -11.47434569 7.15085514 -16 7 C-15.38125 6.71125 -14.7625 6.4225 -14.125 6.125 C-11.86674235 5.06279958 -11.86674235 5.06279958 -10 3 C-3.65384615 0 -3.65384615 0 0 0 Z " fill="#C9C9C9" transform="translate(240,275)"/>
<path d="M0 0 C-1.5801368 2.15473199 -3.10646634 4.10646634 -5 6 C-5.33 6.66 -5.66 7.32 -6 8 C-6.99 7.34 -7.98 6.68 -9 6 C-9.66 6 -10.32 6 -11 6 C-8.60159776 0.46522561 -5.82500047 -0.25888891 0 0 Z " fill="#676767" transform="translate(258,255)"/>
<path d="M0 0 C4.95993219 2.3881155 9.34229706 4.80041514 13 9 C13 9.66 13 10.32 13 11 C8.91918237 10.47585829 7.04739336 8.38881144 4.25 5.5 C3.45078125 4.6853125 2.6515625 3.870625 1.828125 3.03125 C0 1 0 1 0 0 Z " fill="#DCDCDC" transform="translate(256,61)"/>
<path d="M0 0 C2 1 2 1 2.8515625 3.29296875 C5.41470311 12.88532831 5.41470311 12.88532831 5 18 C4.34 18 3.68 18 3 18 C2.01 12.06 1.02 6.12 0 0 Z " fill="#B1B1B1" transform="translate(299,126)"/>
<path d="M0 0 C2 0 2 0 3.5625 1 C5.80812461 4.12434729 5.68834566 7.19781708 6 11 C4.35 10.67 2.7 10.34 1 10 C1.3403125 9.1646875 1.3403125 9.1646875 1.6875 8.3125 C2.12449065 5.07876916 0.81198627 3.60926022 -1 1 C-0.67 0.67 -0.34 0.34 0 0 Z " fill="#D1D1D1" transform="translate(283,88)"/>
<path d="M0 0 C-0.99 1.485 -0.99 1.485 -2 3 C-4.3828125 3.29296875 -4.3828125 3.29296875 -7.125 3.1875 C-8.03507813 3.16042969 -8.94515625 3.13335937 -9.8828125 3.10546875 C-10.58148438 3.07066406 -11.28015625 3.03585937 -12 3 C-12 2.01 -12 1.02 -12 0 C-3.42857143 -1.28571429 -3.42857143 -1.28571429 0 0 Z " fill="#D5D5D5" transform="translate(212,287)"/>
<path d="M0 0 C0.33 0 0.66 0 1 0 C1 2.97 1 5.94 1 9 C-0.98 9 -2.96 9 -5 9 C-4.42680151 5.13091017 -2.56186024 2.88209277 0 0 Z " fill="#E0E0E0" transform="translate(287,231)"/>
<path d="M0 0 C3 1 3 1 4.16796875 2.85546875 C6.15634622 7.40359654 7.52031483 10.92693038 7 16 C4.53859635 13.53859635 3.69673014 11.21543707 2.375 8 C1.92898438 6.9275 1.48296875 5.855 1.0234375 4.75 C0 2 0 2 0 0 Z " fill="#9A9A9A" transform="translate(286,98)"/>
<path d="M0 0 C0.66 0 1.32 0 2 0 C1.38038029 3.9430345 -0.56510043 6.55167752 -2.875 9.75 C-3.57367188 10.73484375 -4.27234375 11.7196875 -4.9921875 12.734375 C-5.65476562 13.48203125 -6.31734375 14.2296875 -7 15 C-7.99 15 -8.98 15 -10 15 C-9.04287109 13.75283203 -9.04287109 13.75283203 -8.06640625 12.48046875 C-7.23155933 11.38297336 -6.39693553 10.28530821 -5.5625 9.1875 C-5.14162109 8.64029297 -4.72074219 8.09308594 -4.28710938 7.52929688 C-2.38855525 5.02320543 -1.00193327 3.00579981 0 0 Z " fill="#EAEAEA" transform="translate(280,240)"/>
<path d="M0 0 C0.33 0 0.66 0 1 0 C1.09945415 6.11090483 1.0712828 11.97403427 0 18 C-0.66 18 -1.32 18 -2 18 C-2 14.7 -2 11.4 -2 8 C-1.34 8 -0.68 8 0 8 C0 5.36 0 2.72 0 0 Z " fill="#6E6E6E" transform="translate(301,160)"/>
<path d="M0 0 C-1.40929697 3.47132095 -2.90605083 4.88093274 -6.125 6.75 C-6.84945313 7.17796875 -7.57390625 7.6059375 -8.3203125 8.046875 C-8.87460938 8.36140625 -9.42890625 8.6759375 -10 9 C-10 8.01 -10 7.02 -10 6 C-8.3203125 4.39453125 -8.3203125 4.39453125 -6.125 2.8125 C-5.04605469 2.01779297 -5.04605469 2.01779297 -3.9453125 1.20703125 C-2 0 -2 0 0 0 Z " fill="#757575" transform="translate(263,253)"/>
<path d="M0 0 C0.66 0 1.32 0 2 0 C2 0.99 2 1.98 2 3 C2.639375 3.28875 3.27875 3.5775 3.9375 3.875 C6 5 6 5 7 7 C4.69 7 2.38 7 0 7 C0 4.69 0 2.38 0 0 Z " fill="#E5E5E5" transform="translate(72,233)"/>
<path d="M0 0 C0.66 0 1.32 0 2 0 C1.67 1.65 1.34 3.3 1 5 C1.66 5.33 2.32 5.66 3 6 C0.525 7.485 0.525 7.485 -2 9 C-2.125 5.625 -2.125 5.625 -2 2 C-1.34 1.34 -0.68 0.68 0 0 Z M-4 9 C-2 10 -2 10 -2 10 Z " fill="#727272" transform="translate(266,242)"/>
<path d="M0 0 C1.10493755 3.31481265 1.05432279 5.66131116 0 9 C-0.99 9.66 -1.98 10.32 -3 11 C-2.88590407 9.54077307 -2.75834456 8.08259402 -2.625 6.625 C-2.55539062 5.81289062 -2.48578125 5.00078125 -2.4140625 4.1640625 C-2 2 -2 2 0 0 Z " fill="#6C6C6C" transform="translate(298,184)"/>
<path d="M0 0 C2.64752004 2.57784846 4.94432065 4.91648098 7 8 C6.01 8.33 5.02 8.66 4 9 C3.34 8.67 2.68 8.34 2 8 C2 7.01 2 6.02 2 5 C1.34 5 0.68 5 0 5 C0 3.35 0 1.7 0 0 Z " fill="#CECECE" transform="translate(72,228)"/>
<path d="M0 0 C3.90381822 3.90381822 3.56244183 5.66179036 4 11 C3.01 11 2.02 11 1 11 C0.67 7.37 0.34 3.74 0 0 Z " fill="#E0E0E0" transform="translate(303,133)"/>
<path d="M0 0 C0.99 0 1.98 0 3 0 C3 0.99 3 1.98 3 3 C4.32 3.66 5.64 4.32 7 5 C7 5.33 7 5.66 7 6 C4.69 6 2.38 6 0 6 C0 4.02 0 2.04 0 0 Z " fill="#D8D8D8" transform="translate(96,258)"/>
<path d="M0 0 C0.33 0.99 0.66 1.98 1 3 C-0.61594832 5.04119788 -2.2856382 7.04072937 -4 9 C-4.33 9.99 -4.66 10.98 -5 12 C-5.66 12 -6.32 12 -7 12 C-6.690625 11.236875 -6.38125 10.47375 -6.0625 9.6875 C-5.32106407 7.81210323 -4.63771783 5.91315348 -4 4 C-3.34 4 -2.68 4 -2 4 C-1.34 2.68 -0.68 1.36 0 0 Z " fill="#A9A9A9" transform="translate(287,228)"/>
<path d="M0 0 C3.3 0.99 6.6 1.98 10 3 C10 3.66 10 4.32 10 5 C3.375 4.25 3.375 4.25 0 2 C0 1.34 0 0.68 0 0 Z " fill="#B3B3B3" transform="translate(128,277)"/>
<path d="M0 0 C0.66 0 1.32 0 2 0 C1.52723148 4.25491665 -0.92547477 6.22542845 -4 9 C-4.99 9.495 -4.99 9.495 -6 10 C-4.34643078 6.41726669 -2.32019297 3.19026533 0 0 Z " fill="#C3C3C3" transform="translate(278,240)"/>
<path d="M0 0 C4.61513112 1.31860889 8.09897612 3.21355437 12 6 C11.01 6.33 10.02 6.66 9 7 C6.73828125 5.8203125 6.73828125 5.8203125 4.3125 4.125 C3.50425781 3.57070313 2.69601563 3.01640625 1.86328125 2.4453125 C1.24839844 1.96835937 0.63351563 1.49140625 0 1 C0 0.67 0 0.34 0 0 Z " fill="#878787" transform="translate(106,262)"/>
<path d="M0 0 C0 0.66 0 1.32 0 2 C-2.95481492 4.74375671 -3.77471908 5 -8 5 C-8 4.34 -8 3.68 -8 3 C-5.04518508 0.25624329 -4.22528092 0 0 0 Z " fill="#BABABA" transform="translate(256,264)"/>
<path d="M0 0 C3.8063457 0.67170806 7.35206816 1.72746564 11 3 C11 3.66 11 4.32 11 5 C9.53890937 4.74445946 8.08111904 4.46999628 6.625 4.1875 C5.81289062 4.03667969 5.00078125 3.88585937 4.1640625 3.73046875 C2 3 2 3 0 0 Z " fill="#858585" transform="translate(131,276)"/>
<path d="M0 0 C0.33 0.66 0.66 1.32 1 2 C0.0625 4.625 0.0625 4.625 -1 7 C-1.66 7 -2.32 7 -3 7 C-3.66 5.68 -4.32 4.36 -5 3 C-3.35 2.01 -1.7 1.02 0 0 Z " fill="#777777" transform="translate(298,192)"/>
<path d="M0 0 C0.33 1.32 0.66 2.64 1 4 C-1.31 4 -3.62 4 -6 4 C-6 3.34 -6 2.68 -6 2 C-4.02 1.34 -2.04 0.68 0 0 Z " fill="#717171" transform="translate(191,282)"/>
<path d="M0 0 C0.66 0.33 1.32 0.66 2 1 C0.25 3.5 0.25 3.5 -2 6 C-3.32 6 -4.64 6 -6 6 C-6 5.01 -6 4.02 -6 3 C-4.03533587 1.93224776 -2.03144641 0.93446535 0 0 Z " fill="#BFBFBF" transform="translate(246,269)"/>
<path d="M0 0 C3.3 0.33 6.6 0.66 10 1 C10 1.66 10 2.32 10 3 C6.6875 3.1875 6.6875 3.1875 3 3 C2.01 2.01 1.02 1.02 0 0 Z " fill="#BDBDBD" transform="translate(138,282)"/>
<path d="M0 0 C3.36591866 1.44253657 5.51047079 3.33264727 8 6 C7.01 6.33 6.02 6.66 5 7 C3.29115995 5.37660195 1.62553283 3.70680947 0 2 C0 1.34 0 0.68 0 0 Z " fill="#ACACAC" transform="translate(90,249)"/>
<path d="M0 0 C-3.75 3 -3.75 3 -6 3 C-6 2.34 -6 1.68 -6 1 C-7.32 0.67 -8.64 0.34 -10 0 C-6.33694766 -0.74926071 -3.57644848 -1.2380014 0 0 Z " fill="#D6D6D6" transform="translate(222,285)"/>
<path d="M0 0 C-1.24546405 3.73639216 -2.63404953 4.18756513 -6 6 C-6 4.68 -6 3.36 -6 2 C-3 0 -3 0 0 0 Z " fill="#EBEBEB" transform="translate(270,256)"/>
<path d="M0 0 C0.763125 0.0825 1.52625 0.165 2.3125 0.25 C1.9825 0.91 1.6525 1.57 1.3125 2.25 C0.6525 2.25 -0.0075 2.25 -0.6875 2.25 C-0.6875 2.91 -0.6875 3.57 -0.6875 4.25 C-2.3375 4.25 -3.9875 4.25 -5.6875 4.25 C-3.34903846 0.31153846 -3.34903846 0.31153846 0 0 Z " fill="#707070" transform="translate(258.6875,250.75)"/>
<path d="M0 0 C1.7074998 1.28062485 3.37373596 2.61767557 5 4 C5 4.66 5 5.32 5 6 C3.125 5.6875 3.125 5.6875 1 5 C0.34 4.01 -0.32 3.02 -1 2 C-0.67 1.34 -0.34 0.68 0 0 Z " fill="#EBEBEB" transform="translate(264,66)"/>
<path d="M0 0 C1.32 0.33 2.64 0.66 4 1 C0.535 3.97 0.535 3.97 -3 7 C-2.34 5.68 -1.68 4.36 -1 3 C-0.67 2.01 -0.34 1.02 0 0 Z " fill="#F4F4F4" transform="translate(282,240)"/>
<path d="M0 0 C0.33 1.32 0.66 2.64 1 4 C-1.97 6.475 -1.97 6.475 -5 9 C-4.42647107 5.12867972 -2.51295648 2.91827204 0 0 Z " fill="#CACACA" transform="translate(287,231)"/>
<path d="M0 0 C5.57142857 5.14285714 5.57142857 5.14285714 6 9 C0.42857143 3.85714286 0.42857143 3.85714286 0 0 Z " fill="#ABABAB" transform="translate(280,88)"/>
</svg>
